{
  "asset": { "version": "2.0" },
  "buffers": [ { "uri": "mesh_group_0.bin", "byteLength": 216 } ],
  "bufferViews": [
    { "buffer": 0, "byteOffset": 0, "byteLength": 168, "target": 34962 },
    { "buffer": 0, "byteOffset": 168, "byteLength": 48, "target": 34963 }
  ],
  "accessors": [
    { "bufferView": 0, "byteOffset": 0, "componentType": 5126, "count": 14, "type": "VEC3",
      "min": [0,0,0], "max": [3,3,0] },
    { "bufferView": 1, "byteOffset": 0, "componentType": 5125, "count": 12, "type": "SCALAR" }
  ],
  "meshes": [ { "primitives": [ { "attributes": { "POSITION": 0 }, "indices": 1, "mode": 4 } ] } ],
  "nodes": [ { "mesh": 0 } ],
  "scenes": [ { "nodes": [0] } ],
  "scene": 0
}