0
SECTION
2
ENTITIES
0
HATCH
5
1
330
1F
100
AcDbEntity
8
0
62
7
100
AcDbHatch
10
0.0
20
0.0
30
0.0
210
0.0
220
0.0
230
1.0
2
ANSI31
70
0
71
0
91
1
92
7
72
0
73
1
93
3000
10
100.000000
20
0.000000
10
99.999781
20
0.209439
10
99.999123
20
0.418878
10
99.998026
20
0.628314
10
99.996491
20
0.837748
10
99.994517
20
1.047178
10
99.992104
20
1.256604
10
99.989253
20
1.466024
10
99.985964
20
1.675438
10
99.982235
20
1.884844
10
99.978068
20
2.094242
10
99.973463
20
2.303631
10
99.968419
20
2.513010
10
99.962936
20
2.722377
10
99.957015
20
2.931733
10
99.950656
20
3.141076
10
99.943858
20
3.350405
10
99.936622
20
3.559719
10
99.928947
20
3.769018
10
99.920834
20
3.978301
10
99.912283
20
4.187565
10
99.903293
20
4.396812
10
99.893866
20
4.606039
10
99.884000
20
4.815246
10
99.873696
20
5.024432
10
99.862953
20
5.233596
10
99.851773
20
5.442736
10
99.840155
20
5.651853
10
99.828099
20
5.860946
10
99.815605
20
6.070012
10
99.802673
20
6.279052
10
99.789303
20
6.488064
10
99.775496
20
6.697048
10
99.761251
20
6.906003
10
99.746568
20
7.114927
10
99.731448
20
7.323820
10
99.715890
20
7.532681
10
99.699895
20
7.741508
10
99.683462
20
7.950302
10
99.666593
20
8.159061
10
99.649286
20
8.367784
10
99.631542
20
8.576471
10
99.613361
20
8.785120
10
99.594743
20
8.993730
10
99.575688
20
9.202301
10
99.556196
20
9.410831
10
99.536268
20
9.619321
10
99.515903
20
9.827768
10
99.495102
20
10.036171
10
99.473864
20
10.244531
10
99.452190
20
10.452846
10
99.430079
20
10.661115
10
99.407532
20
10.869338
10
99.384550
20
11.077512
10
99.361131
20
11.285638
10
99.337277
20
11.493715
10
99.312986
20
11.701741
10
99.288260
20
11.909716
10
99.263099
20
12.117639
10
99.237502
20
12.325508
10
99.211470
20
12.533323
10
99.185003
20
12.741084
10
99.158100
20
12.948788
10
99.130763
20
13.156436
10
99.102991
20
13.364026
10
99.074784
20
13.571557
10
99.046143
20
13.779029
10
99.017067
20
13.986440
10
98.987556
20
14.193790
10
98.957612
20
14.401078
10
98.927233
20
14.608303
10
98.896421
20
14.815463
10
98.865174
20
15.022559
10
98.833494
20
15.229589
10
98.801381
20
15.436551
10
98.768834
20
15.643447
10
98.735854
20
15.850273
10
98.702441
20
16.057030
10
98.668594
20
16.263717
10
98.634315
20
16.470332
10
98.599604
20
16.676875
10
98.564460
20
16.883344
10
98.528883
20
17.089740
10
98.492874
20
17.296061
10
98.456433
20
17.502306
10
98.419561
20
17.708474
10
98.382256
20
17.914564
10
98.344520
20
18.120576
10
98.306353
20
18.326509
10
98.267755
20
18.532361
10
98.228725
20
18.738131
10
98.189265
20
18.943820
10
98.149373
20
19.149425
10
98.109052
20
19.354947
10
98.068300
20
19.560383
10
98.027117
20
19.765734
10
97.985505
20
19.970998
10
97.943463
20
20.176174
10
97.900992
20
20.381262
10
97.858090
20
20.586261
10
97.814760
20
20.791169
10
97.771001
20
20.995986
10
97.726812
20
21.200711
10
97.682195
20
21.405343
10
97.637150
20
21.609881
10
97.591676
20
21.814324
10
97.545774
20
22.018672
10
97.499445
20
22.222923
10
97.452687
20
22.427076
10
97.405502
20
22.631131
10
97.357890
20
22.835087
10
97.309851
20
23.038943
10
97.261385
20
23.242697
10
97.212492
20
23.446350
10
97.163173
20
23.649900
10
97.113428
20
23.853346
10
97.063257
20
24.056687
10
97.012660
20
24.259923
10
96.961637
20
24.463053
10
96.910189
20
24.666075
10
96.858316
20
24.868989
10
96.806018
20
25.071794
10
96.753296
20
25.274489
10
96.700149
20
25.477073
10
96.646578
20
25.679545
10
96.592583
20
25.881905
10
96.538164
20
26.084151
10
96.483322
20
26.286282
10
96.428056
20
26.488299
10
96.372368
20
26.690199
10
96.316257
20
26.891982
10
96.259723
20
27.093647
10
96.202767
20
27.295194
10
96.145389
20
27.496620
10
96.087590
20
27.697926
10
96.029369
20
27.899111
10
95.970726
20
28.100173
10
95.911663
20
28.301112
10
95.852179
20
28.501926
10
95.792274
20
28.702616
10
95.731950
20
28.903180
10
95.671205
20
29.103617
10
95.610041
20
29.303926
10
95.548457
20
29.504107
10
95.486454
20
29.704158
10
95.424033
20
29.904079
10
95.361193
20
30.103869
10
95.297934
20
30.303527
10
95.234258
20
30.503052
10
95.170163
20
30.702443
10
95.105652
20
30.901699
10
95.040723
20
31.100820
10
94.975377
20
31.299805
10
94.909614
20
31.498652
10
94.843436
20
31.697361
10
94.776841
20
31.895931
10
94.709830
20
32.094361
10
94.642405
20
32.292650
10
94.574563
20
32.490798
10
94.506308
20
32.688803
10
94.437637
20
32.886665
10
94.368552
20
33.084382
10
94.299054
20
33.281954
10
94.229141
20
33.479381
10
94.158816
20
33.676660
10
94.088077
20
33.873792
10
94.016925
20
34.070775
10
93.945362
20
34.267609
10
93.873386
20
34.464292
10
93.800998
20
34.660825
10
93.728199
20
34.857205
10
93.654989
20
35.053432
10
93.581368
20
35.249506
10
93.507336
20
35.445424
10
93.432894
20
35.641188
10
93.358043
20
35.836795
10
93.282782
20
36.032245
10
93.207111
20
36.227537
10
93.131032
20
36.422670
10
93.054544
20
36.617643
10
92.977649
20
36.812455
10
92.900345
20
37.007106
10
92.822634
20
37.201595
10
92.744515
20
37.395921
10
92.665990
20
37.590082
10
92.587058
20
37.784079
10
92.507721
20
37.977910
10
92.427977
20
38.171574
10
92.347828
20
38.365071
10
92.267274
20
38.558399
10
92.186315
20
38.751559
10
92.104952
20
38.944548
10
92.023185
20
39.137367
10
91.941014
20
39.330014
10
91.858440
20
39.522488
10
91.775463
20
39.714789
10
91.692083
20
39.906916
10
91.608301
20
40.098868
10
91.524117
20
40.290644
10
91.439532
20
40.482243
10
91.354546
20
40.673664
10
91.269159
20
40.864907
10
91.183371
20
41.055971
10
91.097184
20
41.246855
10
91.010597
20
41.437558
10
90.923611
20
41.628079
10
90.836226
20
41.818418
10
90.748442
20
42.008573
10
90.660261
20
42.198544
10
90.571682
20
42.388329
10
90.482705
20
42.577929
10
90.393332
20
42.767342
10
90.303562
20
42.956568
10
90.213396
20
43.145605
10
90.122834
20
43.334452
10
90.031877
20
43.523110
10
89.940525
20
43.711577
10
89.848779
20
43.899852
10
89.756638
20
44.087934
10
89.664104
20
44.275823
10
89.571176
20
44.463518
10
89.477855
20
44.651018
10
89.384142
20
44.838322
10
89.290037
20
45.025429
10
89.195540
20
45.212339
10
89.100652
20
45.399050
10
89.005374
20
45.585562
10
88.909704
20
45.771875
10
88.813645
20
45.957986
10
88.717196
20
46.143896
10
88.620358
20
46.329604
10
88.523131
20
46.515108
10
88.425516
20
46.700408
10
88.327513
20
46.885503
10
88.229123
20
47.070393
10
88.130345
20
47.255076
10
88.031181
20
47.439552
10
87.931631
20
47.623820
10
87.831695
20
47.807879
10
87.731374
20
47.991729
10
87.630668
20
48.175367
10
87.529578
20
48.358795
10
87.428103
20
48.542010
10
87.326245
20
48.725013
10
87.224005
20
48.907801
10
87.121381
20
49.090375
10
87.018375
20
49.272734
10
86.914988
20
49.454877
10
86.811220
20
49.636803
10
86.707070
20
49.818511
10
86.602540
20
50.000000
10
86.497631
20
50.181270
10
86.392342
20
50.362320
10
86.286674
20
50.543149
10
86.180627
20
50.723757
10
86.074203
20
50.904142
10
85.967401
20
51.084303
10
85.860221
20
51.264241
10
85.752666
20
51.443953
10
85.644734
20
51.623440
10
85.536426
20
51.802701
10
85.427743
20
51.981734
10
85.318686
20
52.160540
10
85.209254
20
52.339116
10
85.099448
20
52.517463
10
84.989269
20
52.695580
10
84.878718
20
52.873465
10
84.767794
20
53.051118
10
84.656498
20
53.228539
10
84.544831
20
53.405726
10
84.432793
20
53.582679
10
84.320384
20
53.759397
10
84.207606
20
53.935880
10
84.094458
20
54.112125
10
83.980942
20
54.288133
10
83.867057
20
54.463904
10
83.752804
20
54.639435
10
83.638184
20
54.814726
10
83.523197
20
54.989777
10
83.407843
20
55.164587
10
83.292124
20
55.339155
10
83.176039
20
55.513480
10
83.059590
20
55.687562
10
82.942776
20
55.861399
10
82.825598
20
56.034991
10
82.708057
20
56.208338
10
82.590154
20
56.381438
10
82.471888
20
56.554290
10
82.353260
20
56.726895
10
82.234271
20
56.899251
10
82.114921
20
57.071357
10
81.995211
20
57.243213
10
81.875141
20
57.414817
10
81.754712
20
57.586170
10
81.633925
20
57.757270
10
81.512780
20
57.928117
10
81.391277
20
58.098710
10
81.269416
20
58.269048
10
81.147200
20
58.439130
10
81.024627
20
58.608956
10
80.901699
20
58.778525
10
80.778417
20
58.947836
10
80.654779
20
59.116889
10
80.530789
20
59.285682
10
80.406444
20
59.454215
10
80.281748
20
59.622487
10
80.156698
20
59.790498
10
80.031298
20
59.958247
10
79.905546
20
60.125732
10
79.779444
20
60.292954
10
79.652992
20
60.459911
10
79.526190
20
60.626604
10
79.399040
20
60.793030
10
79.271541
20
60.959189
10
79.143695
20
61.125081
10
79.015501
20
61.290705
10
78.886961
20
61.456060
10
78.758075
20
61.621146
10
78.628843
20
61.785961
10
78.499267
20
61.950506
10
78.369346
20
62.114778
10
78.239081
20
62.278778
10
78.108473
20
62.442505
10
77.977523
20
62.605958
10
77.846230
20
62.769136
10
77.714596
20
62.932039
10
77.582621
20
63.094666
10
77.450306
20
63.257016
10
77.317651
20
63.419089
10
77.184657
20
63.580883
10
77.051324
20
63.742399
10
76.917654
20
63.903635
10
76.783646
20
64.064591
10
76.649301
20
64.225265
10
76.514620
20
64.385658
10
76.379603
20
64.545769
10
76.244251
20
64.705596
10
76.108565
20
64.865140
10
75.972545
20
65.024399
10
75.836192
20
65.183373
10
75.699506
20
65.342060
10
75.562488
20
65.500462
10
75.425138
20
65.658576
10
75.287458
20
65.816401
10
75.149447
20
65.973939
10
75.011107
20
66.131187
10
74.872438
20
66.288144
10
74.733440
20
66.444811
10
74.594115
20
66.601187
10
74.454462
20
66.757270
10
74.314483
20
66.913061
10
74.174177
20
67.068558
10
74.033547
20
67.223760
10
73.892591
20
67.378668
10
73.751312
20
67.533281
10
73.609709
20
67.687597
10
73.467783
20
67.841616
10
73.325535
20
67.995338
10
73.182965
20
68.148761
10
73.040074
20
68.301886
10
72.896863
20
68.454711
10
72.753332
20
68.607235
10
72.609482
20
68.759459
10
72.465313
20
68.911381
10
72.320827
20
69.063001
10
72.176023
20
69.214317
10
72.030902
20
69.365331
10
71.885466
20
69.516040
10
71.739715
20
69.666443
10
71.593648
20
69.816542
10
71.447268
20
69.966334
10
71.300574
20
70.115819
10
71.153568
20
70.264997
10
71.006249
20
70.413866
10
70.858619
20
70.562427
10
70.710678
20
70.710678
10
70.562427
20
70.858619
10
70.413866
20
71.006249
10
70.264997
20
71.153568
10
70.115819
20
71.300574
10
69.966334
20
71.447268
10
69.816542
20
71.593648
10
69.666443
20
71.739715
10
69.516040
20
71.885466
10
69.365331
20
72.030902
10
69.214317
20
72.176023
10
69.063001
20
72.320827
10
68.911381
20
72.465313
10
68.759459
20
72.609482
10
68.607235
20
72.753332
10
68.454711
20
72.896863
10
68.301886
20
73.040074
10
68.148761
20
73.182965
10
67.995338
20
73.325535
10
67.841616
20
73.467783
10
67.687597
20
73.609709
10
67.533281
20
73.751312
10
67.378668
20
73.892591
10
67.223760
20
74.033547
10
67.068558
20
74.174177
10
66.913061
20
74.314483
10
66.757270
20
74.454462
10
66.601187
20
74.594115
10
66.444811
20
74.733440
10
66.288144
20
74.872438
10
66.131187
20
75.011107
10
65.973939
20
75.149447
10
65.816401
20
75.287458
10
65.658576
20
75.425138
10
65.500462
20
75.562488
10
65.342060
20
75.699506
10
65.183373
20
75.836192
10
65.024399
20
75.972545
10
64.865140
20
76.108565
10
64.705596
20
76.244251
10
64.545769
20
76.379603
10
64.385658
20
76.514620
10
64.225265
20
76.649301
10
64.064591
20
76.783646
10
63.903635
20
76.917654
10
63.742399
20
77.051324
10
63.580883
20
77.184657
10
63.419089
20
77.317651
10
63.257016
20
77.450306
10
63.094666
20
77.582621
10
62.932039
20
77.714596
10
62.769136
20
77.846230
10
62.605958
20
77.977523
10
62.442505
20
78.108473
10
62.278778
20
78.239081
10
62.114778
20
78.369346
10
61.950506
20
78.499267
10
61.785961
20
78.628843
10
61.621146
20
78.758075
10
61.456060
20
78.886961
10
61.290705
20
79.015501
10
61.125081
20
79.143695
10
60.959189
20
79.271541
10
60.793030
20
79.399040
10
60.626604
20
79.526190
10
60.459911
20
79.652992
10
60.292954
20
79.779444
10
60.125732
20
79.905546
10
59.958247
20
80.031298
10
59.790498
20
80.156698
10
59.622487
20
80.281748
10
59.454215
20
80.406444
10
59.285682
20
80.530789
10
59.116889
20
80.654779
10
58.947836
20
80.778417
10
58.778525
20
80.901699
10
58.608956
20
81.024627
10
58.439130
20
81.147200
10
58.269048
20
81.269416
10
58.098710
20
81.391277
10
57.928117
20
81.512780
10
57.757270
20
81.633925
10
57.586170
20
81.754712
10
57.414817
20
81.875141
10
57.243213
20
81.995211
10
57.071357
20
82.114921
10
56.899251
20
82.234271
10
56.726895
20
82.353260
10
56.554290
20
82.471888
10
56.381438
20
82.590154
10
56.208338
20
82.708057
10
56.034991
20
82.825598
10
55.861399
20
82.942776
10
55.687562
20
83.059590
10
55.513480
20
83.176039
10
55.339155
20
83.292124
10
55.164587
20
83.407843
10
54.989777
20
83.523197
10
54.814726
20
83.638184
10
54.639435
20
83.752804
10
54.463904
20
83.867057
10
54.288133
20
83.980942
10
54.112125
20
84.094458
10
53.935880
20
84.207606
10
53.759397
20
84.320384
10
53.582679
20
84.432793
10
53.405726
20
84.544831
10
53.228539
20
84.656498
10
53.051118
20
84.767794
10
52.873465
20
84.878718
10
52.695580
20
84.989269
10
52.517463
20
85.099448
10
52.339116
20
85.209254
10
52.160540
20
85.318686
10
51.981734
20
85.427743
10
51.802701
20
85.536426
10
51.623440
20
85.644734
10
51.443953
20
85.752666
10
51.264241
20
85.860221
10
51.084303
20
85.967401
10
50.904142
20
86.074203
10
50.723757
20
86.180627
10
50.543149
20
86.286674
10
50.362320
20
86.392342
10
50.181270
20
86.497631
10
50.000000
20
86.602540
10
49.818511
20
86.707070
10
49.636803
20
86.811220
10
49.454877
20
86.914988
10
49.272734
20
87.018375
10
49.090375
20
87.121381
10
48.907801
20
87.224005
10
48.725013
20
87.326245
10
48.542010
20
87.428103
10
48.358795
20
87.529578
10
48.175367
20
87.630668
10
47.991729
20
87.731374
10
47.807879
20
87.831695
10
47.623820
20
87.931631
10
47.439552
20
88.031181
10
47.255076
20
88.130345
10
47.070393
20
88.229123
10
46.885503
20
88.327513
10
46.700408
20
88.425516
10
46.515108
20
88.523131
10
46.329604
20
88.620358
10
46.143896
20
88.717196
10
45.957986
20
88.813645
10
45.771875
20
88.909704
10
45.585562
20
89.005374
10
45.399050
20
89.100652
10
45.212339
20
89.195540
10
45.025429
20
89.290037
10
44.838322
20
89.384142
10
44.651018
20
89.477855
10
44.463518
20
89.571176
10
44.275823
20
89.664104
10
44.087934
20
89.756638
10
43.899852
20
89.848779
10
43.711577
20
89.940525
10
43.523110
20
90.031877
10
43.334452
20
90.122834
10
43.145605
20
90.213396
10
42.956568
20
90.303562
10
42.767342
20
90.393332
10
42.577929
20
90.482705
10
42.388329
20
90.571682
10
42.198544
20
90.660261
10
42.008573
20
90.748442
10
41.818418
20
90.836226
10
41.628079
20
90.923611
10
41.437558
20
91.010597
10
41.246855
20
91.097184
10
41.055971
20
91.183371
10
40.864907
20
91.269159
10
40.673664
20
91.354546
10
40.482243
20
91.439532
10
40.290644
20
91.524117
10
40.098868
20
91.608301
10
39.906916
20
91.692083
10
39.714789
20
91.775463
10
39.522488
20
91.858440
10
39.330014
20
91.941014
10
39.137367
20
92.023185
10
38.944548
20
92.104952
10
38.751559
20
92.186315
10
38.558399
20
92.267274
10
38.365071
20
92.347828
10
38.171574
20
92.427977
10
37.977910
20
92.507721
10
37.784079
20
92.587058
10
37.590082
20
92.665990
10
37.395921
20
92.744515
10
37.201595
20
92.822634
10
37.007106
20
92.900345
10
36.812455
20
92.977649
10
36.617643
20
93.054544
10
36.422670
20
93.131032
10
36.227537
20
93.207111
10
36.032245
20
93.282782
10
35.836795
20
93.358043
10
35.641188
20
93.432894
10
35.445424
20
93.507336
10
35.249506
20
93.581368
10
35.053432
20
93.654989
10
34.857205
20
93.728199
10
34.660825
20
93.800998
10
34.464292
20
93.873386
10
34.267609
20
93.945362
10
34.070775
20
94.016925
10
33.873792
20
94.088077
10
33.676660
20
94.158816
10
33.479381
20
94.229141
10
33.281954
20
94.299054
10
33.084382
20
94.368552
10
32.886665
20
94.437637
10
32.688803
20
94.506308
10
32.490798
20
94.574563
10
32.292650
20
94.642405
10
32.094361
20
94.709830
10
31.895931
20
94.776841
10
31.697361
20
94.843436
10
31.498652
20
94.909614
10
31.299805
20
94.975377
10
31.100820
20
95.040723
10
30.901699
20
95.105652
10
30.702443
20
95.170163
10
30.503052
20
95.234258
10
30.303527
20
95.297934
10
30.103869
20
95.361193
10
29.904079
20
95.424033
10
29.704158
20
95.486454
10
29.504107
20
95.548457
10
29.303926
20
95.610041
10
29.103617
20
95.671205
10
28.903180
20
95.731950
10
28.702616
20
95.792274
10
28.501926
20
95.852179
10
28.301112
20
95.911663
10
28.100173
20
95.970726
10
27.899111
20
96.029369
10
27.697926
20
96.087590
10
27.496620
20
96.145389
10
27.295194
20
96.202767
10
27.093647
20
96.259723
10
26.891982
20
96.316257
10
26.690199
20
96.372368
10
26.488299
20
96.428056
10
26.286282
20
96.483322
10
26.084151
20
96.538164
10
25.881905
20
96.592583
10
25.679545
20
96.646578
10
25.477073
20
96.700149
10
25.274489
20
96.753296
10
25.071794
20
96.806018
10
24.868989
20
96.858316
10
24.666075
20
96.910189
10
24.463053
20
96.961637
10
24.259923
20
97.012660
10
24.056687
20
97.063257
10
23.853346
20
97.113428
10
23.649900
20
97.163173
10
23.446350
20
97.212492
10
23.242697
20
97.261385
10
23.038943
20
97.309851
10
22.835087
20
97.357890
10
22.631131
20
97.405502
10
22.427076
20
97.452687
10
22.222923
20
97.499445
10
22.018672
20
97.545774
10
21.814324
20
97.591676
10
21.609881
20
97.637150
10
21.405343
20
97.682195
10
21.200711
20
97.726812
10
20.995986
20
97.771001
10
20.791169
20
97.814760
10
20.586261
20
97.858090
10
20.381262
20
97.900992
10
20.176174
20
97.943463
10
19.970998
20
97.985505
10
19.765734
20
98.027117
10
19.560383
20
98.068300
10
19.354947
20
98.109052
10
19.149425
20
98.149373
10
18.943820
20
98.189265
10
18.738131
20
98.228725
10
18.532361
20
98.267755
10
18.326509
20
98.306353
10
18.120576
20
98.344520
10
17.914564
20
98.382256
10
17.708474
20
98.419561
10
17.502306
20
98.456433
10
17.296061
20
98.492874
10
17.089740
20
98.528883
10
16.883344
20
98.564460
10
16.676875
20
98.599604
10
16.470332
20
98.634315
10
16.263717
20
98.668594
10
16.057030
20
98.702441
10
15.850273
20
98.735854
10
15.643447
20
98.768834
10
15.436551
20
98.801381
10
15.229589
20
98.833494
10
15.022559
20
98.865174
10
14.815463
20
98.896421
10
14.608303
20
98.927233
10
14.401078
20
98.957612
10
14.193790
20
98.987556
10
13.986440
20
99.017067
10
13.779029
20
99.046143
10
13.571557
20
99.074784
10
13.364026
20
99.102991
10
13.156436
20
99.130763
10
12.948788
20
99.158100
10
12.741084
20
99.185003
10
12.533323
20
99.211470
10
12.325508
20
99.237502
10
12.117639
20
99.263099
10
11.909716
20
99.288260
10
11.701741
20
99.312986
10
11.493715
20
99.337277
10
11.285638
20
99.361131
10
11.077512
20
99.384550
10
10.869338
20
99.407532
10
10.661115
20
99.430079
10
10.452846
20
99.452190
10
10.244531
20
99.473864
10
10.036171
20
99.495102
10
9.827768
20
99.515903
10
9.619321
20
99.536268
10
9.410831
20
99.556196
10
9.202301
20
99.575688
10
8.993730
20
99.594743
10
8.785120
20
99.613361
10
8.576471
20
99.631542
10
8.367784
20
99.649286
10
8.159061
20
99.666593
10
7.950302
20
99.683462
10
7.741508
20
99.699895
10
7.532681
20
99.715890
10
7.323820
20
99.731448
10
7.114927
20
99.746568
10
6.906003
20
99.761251
10
6.697048
20
99.775496
10
6.488064
20
99.789303
10
6.279052
20
99.802673
10
6.070012
20
99.815605
10
5.860946
20
99.828099
10
5.651853
20
99.840155
10
5.442736
20
99.851773
10
5.233596
20
99.862953
10
5.024432
20
99.873696
10
4.815246
20
99.884000
10
4.606039
20
99.893866
10
4.396812
20
99.903293
10
4.187565
20
99.912283
10
3.978301
20
99.920834
10
3.769018
20
99.928947
10
3.559719
20
99.936622
10
3.350405
20
99.943858
10
3.141076
20
99.950656
10
2.931733
20
99.957015
10
2.722377
20
99.962936
10
2.513010
20
99.968419
10
2.303631
20
99.973463
10
2.094242
20
99.978068
10
1.884844
20
99.982235
10
1.675438
20
99.985964
10
1.466024
20
99.989253
10
1.256604
20
99.992104
10
1.047178
20
99.994517
10
0.837748
20
99.996491
10
0.628314
20
99.998026
10
0.418878
20
99.999123
10
0.209439
20
99.999781
10
0.000000
20
100.000000
10
-0.209439
20
99.999781
10
-0.418878
20
99.999123
10
-0.628314
20
99.998026
10
-0.837748
20
99.996491
10
-1.047178
20
99.994517
10
-1.256604
20
99.992104
10
-1.466024
20
99.989253
10
-1.675438
20
99.985964
10
-1.884844
20
99.982235
10
-2.094242
20
99.978068
10
-2.303631
20
99.973463
10
-2.513010
20
99.968419
10
-2.722377
20
99.962936
10
-2.931733
20
99.957015
10
-3.141076
20
99.950656
10
-3.350405
20
99.943858
10
-3.559719
20
99.936622
10
-3.769018
20
99.928947
10
-3.978301
20
99.920834
10
-4.187565
20
99.912283
10
-4.396812
20
99.903293
10
-4.606039
20
99.893866
10
-4.815246
20
99.884000
10
-5.024432
20
99.873696
10
-5.233596
20
99.862953
10
-5.442736
20
99.851773
10
-5.651853
20
99.840155
10
-5.860946
20
99.828099
10
-6.070012
20
99.815605
10
-6.279052
20
99.802673
10
-6.488064
20
99.789303
10
-6.697048
20
99.775496
10
-6.906003
20
99.761251
10
-7.114927
20
99.746568
10
-7.323820
20
99.731448
10
-7.532681
20
99.715890
10
-7.741508
20
99.699895
10
-7.950302
20
99.683462
10
-8.159061
20
99.666593
10
-8.367784
20
99.649286
10
-8.576471
20
99.631542
10
-8.785120
20
99.613361
10
-8.993730
20
99.594743
10
-9.202301
20
99.575688
10
-9.410831
20
99.556196
10
-9.619321
20
99.536268
10
-9.827768
20
99.515903
10
-10.036171
20
99.495102
10
-10.244531
20
99.473864
10
-10.452846
20
99.452190
10
-10.661115
20
99.430079
10
-10.869338
20
99.407532
10
-11.077512
20
99.384550
10
-11.285638
20
99.361131
10
-11.493715
20
99.337277
10
-11.701741
20
99.312986
10
-11.909716
20
99.288260
10
-12.117639
20
99.263099
10
-12.325508
20
99.237502
10
-12.533323
20
99.211470
10
-12.741084
20
99.185003
10
-12.948788
20
99.158100
10
-13.156436
20
99.130763
10
-13.364026
20
99.102991
10
-13.571557
20
99.074784
10
-13.779029
20
99.046143
10
-13.986440
20
99.017067
10
-14.193790
20
98.987556
10
-14.401078
20
98.957612
10
-14.608303
20
98.927233
10
-14.815463
20
98.896421
10
-15.022559
20
98.865174
10
-15.229589
20
98.833494
10
-15.436551
20
98.801381
10
-15.643447
20
98.768834
10
-15.850273
20
98.735854
10
-16.057030
20
98.702441
10
-16.263717
20
98.668594
10
-16.470332
20
98.634315
10
-16.676875
20
98.599604
10
-16.883344
20
98.564460
10
-17.089740
20
98.528883
10
-17.296061
20
98.492874
10
-17.502306
20
98.456433
10
-17.708474
20
98.419561
10
-17.914564
20
98.382256
10
-18.120576
20
98.344520
10
-18.326509
20
98.306353
10
-18.532361
20
98.267755
10
-18.738131
20
98.228725
10
-18.943820
20
98.189265
10
-19.149425
20
98.149373
10
-19.354947
20
98.109052
10
-19.560383
20
98.068300
10
-19.765734
20
98.027117
10
-19.970998
20
97.985505
10
-20.176174
20
97.943463
10
-20.381262
20
97.900992
10
-20.586261
20
97.858090
10
-20.791169
20
97.814760
10
-20.995986
20
97.771001
10
-21.200711
20
97.726812
10
-21.405343
20
97.682195
10
-21.609881
20
97.637150
10
-21.814324
20
97.591676
10
-22.018672
20
97.545774
10
-22.222923
20
97.499445
10
-22.427076
20
97.452687
10
-22.631131
20
97.405502
10
-22.835087
20
97.357890
10
-23.038943
20
97.309851
10
-23.242697
20
97.261385
10
-23.446350
20
97.212492
10
-23.649900
20
97.163173
10
-23.853346
20
97.113428
10
-24.056687
20
97.063257
10
-24.259923
20
97.012660
10
-24.463053
20
96.961637
10
-24.666075
20
96.910189
10
-24.868989
20
96.858316
10
-25.071794
20
96.806018
10
-25.274489
20
96.753296
10
-25.477073
20
96.700149
10
-25.679545
20
96.646578
10
-25.881905
20
96.592583
10
-26.084151
20
96.538164
10
-26.286282
20
96.483322
10
-26.488299
20
96.428056
10
-26.690199
20
96.372368
10
-26.891982
20
96.316257
10
-27.093647
20
96.259723
10
-27.295194
20
96.202767
10
-27.496620
20
96.145389
10
-27.697926
20
96.087590
10
-27.899111
20
96.029369
10
-28.100173
20
95.970726
10
-28.301112
20
95.911663
10
-28.501926
20
95.852179
10
-28.702616
20
95.792274
10
-28.903180
20
95.731950
10
-29.103617
20
95.671205
10
-29.303926
20
95.610041
10
-29.504107
20
95.548457
10
-29.704158
20
95.486454
10
-29.904079
20
95.424033
10
-30.103869
20
95.361193
10
-30.303527
20
95.297934
10
-30.503052
20
95.234258
10
-30.702443
20
95.170163
10
-30.901699
20
95.105652
10
-31.100820
20
95.040723
10
-31.299805
20
94.975377
10
-31.498652
20
94.909614
10
-31.697361
20
94.843436
10
-31.895931
20
94.776841
10
-32.094361
20
94.709830
10
-32.292650
20
94.642405
10
-32.490798
20
94.574563
10
-32.688803
20
94.506308
10
-32.886665
20
94.437637
10
-33.084382
20
94.368552
10
-33.281954
20
94.299054
10
-33.479381
20
94.229141
10
-33.676660
20
94.158816
10
-33.873792
20
94.088077
10
-34.070775
20
94.016925
10
-34.267609
20
93.945362
10
-34.464292
20
93.873386
10
-34.660825
20
93.800998
10
-34.857205
20
93.728199
10
-35.053432
20
93.654989
10
-35.249506
20
93.581368
10
-35.445424
20
93.507336
10
-35.641188
20
93.432894
10
-35.836795
20
93.358043
10
-36.032245
20
93.282782
10
-36.227537
20
93.207111
10
-36.422670
20
93.131032
10
-36.617643
20
93.054544
10
-36.812455
20
92.977649
10
-37.007106
20
92.900345
10
-37.201595
20
92.822634
10
-37.395921
20
92.744515
10
-37.590082
20
92.665990
10
-37.784079
20
92.587058
10
-37.977910
20
92.507721
10
-38.171574
20
92.427977
10
-38.365071
20
92.347828
10
-38.558399
20
92.267274
10
-38.751559
20
92.186315
10
-38.944548
20
92.104952
10
-39.137367
20
92.023185
10
-39.330014
20
91.941014
10
-39.522488
20
91.858440
10
-39.714789
20
91.775463
10
-39.906916
20
91.692083
10
-40.098868
20
91.608301
10
-40.290644
20
91.524117
10
-40.482243
20
91.439532
10
-40.673664
20
91.354546
10
-40.864907
20
91.269159
10
-41.055971
20
91.183371
10
-41.246855
20
91.097184
10
-41.437558
20
91.010597
10
-41.628079
20
90.923611
10
-41.818418
20
90.836226
10
-42.008573
20
90.748442
10
-42.198544
20
90.660261
10
-42.388329
20
90.571682
10
-42.577929
20
90.482705
10
-42.767342
20
90.393332
10
-42.956568
20
90.303562
10
-43.145605
20
90.213396
10
-43.334452
20
90.122834
10
-43.523110
20
90.031877
10
-43.711577
20
89.940525
10
-43.899852
20
89.848779
10
-44.087934
20
89.756638
10
-44.275823
20
89.664104
10
-44.463518
20
89.571176
10
-44.651018
20
89.477855
10
-44.838322
20
89.384142
10
-45.025429
20
89.290037
10
-45.212339
20
89.195540
10
-45.399050
20
89.100652
10
-45.585562
20
89.005374
10
-45.771875
20
88.909704
10
-45.957986
20
88.813645
10
-46.143896
20
88.717196
10
-46.329604
20
88.620358
10
-46.515108
20
88.523131
10
-46.700408
20
88.425516
10
-46.885503
20
88.327513
10
-47.070393
20
88.229123
10
-47.255076
20
88.130345
10
-47.439552
20
88.031181
10
-47.623820
20
87.931631
10
-47.807879
20
87.831695
10
-47.991729
20
87.731374
10
-48.175367
20
87.630668
10
-48.358795
20
87.529578
10
-48.542010
20
87.428103
10
-48.725013
20
87.326245
10
-48.907801
20
87.224005
10
-49.090375
20
87.121381
10
-49.272734
20
87.018375
10
-49.454877
20
86.914988
10
-49.636803
20
86.811220
10
-49.818511
20
86.707070
10
-50.000000
20
86.602540
10
-50.181270
20
86.497631
10
-50.362320
20
86.392342
10
-50.543149
20
86.286674
10
-50.723757
20
86.180627
10
-50.904142
20
86.074203
10
-51.084303
20
85.967401
10
-51.264241
20
85.860221
10
-51.443953
20
85.752666
10
-51.623440
20
85.644734
10
-51.802701
20
85.536426
10
-51.981734
20
85.427743
10
-52.160540
20
85.318686
10
-52.339116
20
85.209254
10
-52.517463
20
85.099448
10
-52.695580
20
84.989269
10
-52.873465
20
84.878718
10
-53.051118
20
84.767794
10
-53.228539
20
84.656498
10
-53.405726
20
84.544831
10
-53.582679
20
84.432793
10
-53.759397
20
84.320384
10
-53.935880
20
84.207606
10
-54.112125
20
84.094458
10
-54.288133
20
83.980942
10
-54.463904
20
83.867057
10
-54.639435
20
83.752804
10
-54.814726
20
83.638184
10
-54.989777
20
83.523197
10
-55.164587
20
83.407843
10
-55.339155
20
83.292124
10
-55.513480
20
83.176039
10
-55.687562
20
83.059590
10
-55.861399
20
82.942776
10
-56.034991
20
82.825598
10
-56.208338
20
82.708057
10
-56.381438
20
82.590154
10
-56.554290
20
82.471888
10
-56.726895
20
82.353260
10
-56.899251
20
82.234271
10
-57.071357
20
82.114921
10
-57.243213
20
81.995211
10
-57.414817
20
81.875141
10
-57.586170
20
81.754712
10
-57.757270
20
81.633925
10
-57.928117
20
81.512780
10
-58.098710
20
81.391277
10
-58.269048
20
81.269416
10
-58.439130
20
81.147200
10
-58.608956
20
81.024627
10
-58.778525
20
80.901699
10
-58.947836
20
80.778417
10
-59.116889
20
80.654779
10
-59.285682
20
80.530789
10
-59.454215
20
80.406444
10
-59.622487
20
80.281748
10
-59.790498
20
80.156698
10
-59.958247
20
80.031298
10
-60.125732
20
79.905546
10
-60.292954
20
79.779444
10
-60.459911
20
79.652992
10
-60.626604
20
79.526190
10
-60.793030
20
79.399040
10
-60.959189
20
79.271541
10
-61.125081
20
79.143695
10
-61.290705
20
79.015501
10
-61.456060
20
78.886961
10
-61.621146
20
78.758075
10
-61.785961
20
78.628843
10
-61.950506
20
78.499267
10
-62.114778
20
78.369346
10
-62.278778
20
78.239081
10
-62.442505
20
78.108473
10
-62.605958
20
77.977523
10
-62.769136
20
77.846230
10
-62.932039
20
77.714596
10
-63.094666
20
77.582621
10
-63.257016
20
77.450306
10
-63.419089
20
77.317651
10
-63.580883
20
77.184657
10
-63.742399
20
77.051324
10
-63.903635
20
76.917654
10
-64.064591
20
76.783646
10
-64.225265
20
76.649301
10
-64.385658
20
76.514620
10
-64.545769
20
76.379603
10
-64.705596
20
76.244251
10
-64.865140
20
76.108565
10
-65.024399
20
75.972545
10
-65.183373
20
75.836192
10
-65.342060
20
75.699506
10
-65.500462
20
75.562488
10
-65.658576
20
75.425138
10
-65.816401
20
75.287458
10
-65.973939
20
75.149447
10
-66.131187
20
75.011107
10
-66.288144
20
74.872438
10
-66.444811
20
74.733440
10
-66.601187
20
74.594115
10
-66.757270
20
74.454462
10
-66.913061
20
74.314483
10
-67.068558
20
74.174177
10
-67.223760
20
74.033547
10
-67.378668
20
73.892591
10
-67.533281
20
73.751312
10
-67.687597
20
73.609709
10
-67.841616
20
73.467783
10
-67.995338
20
73.325535
10
-68.148761
20
73.182965
10
-68.301886
20
73.040074
10
-68.454711
20
72.896863
10
-68.607235
20
72.753332
10
-68.759459
20
72.609482
10
-68.911381
20
72.465313
10
-69.063001
20
72.320827
10
-69.214317
20
72.176023
10
-69.365331
20
72.030902
10
-69.516040
20
71.885466
10
-69.666443
20
71.739715
10
-69.816542
20
71.593648
10
-69.966334
20
71.447268
10
-70.115819
20
71.300574
10
-70.264997
20
71.153568
10
-70.413866
20
71.006249
10
-70.562427
20
70.858619
10
-70.710678
20
70.710678
10
-70.858619
20
70.562427
10
-71.006249
20
70.413866
10
-71.153568
20
70.264997
10
-71.300574
20
70.115819
10
-71.447268
20
69.966334
10
-71.593648
20
69.816542
10
-71.739715
20
69.666443
10
-71.885466
20
69.516040
10
-72.030902
20
69.365331
10
-72.176023
20
69.214317
10
-72.320827
20
69.063001
10
-72.465313
20
68.911381
10
-72.609482
20
68.759459
10
-72.753332
20
68.607235
10
-72.896863
20
68.454711
10
-73.040074
20
68.301886
10
-73.182965
20
68.148761
10
-73.325535
20
67.995338
10
-73.467783
20
67.841616
10
-73.609709
20
67.687597
10
-73.751312
20
67.533281
10
-73.892591
20
67.378668
10
-74.033547
20
67.223760
10
-74.174177
20
67.068558
10
-74.314483
20
66.913061
10
-74.454462
20
66.757270
10
-74.594115
20
66.601187
10
-74.733440
20
66.444811
10
-74.872438
20
66.288144
10
-75.011107
20
66.131187
10
-75.149447
20
65.973939
10
-75.287458
20
65.816401
10
-75.425138
20
65.658576
10
-75.562488
20
65.500462
10
-75.699506
20
65.342060
10
-75.836192
20
65.183373
10
-75.972545
20
65.024399
10
-76.108565
20
64.865140
10
-76.244251
20
64.705596
10
-76.379603
20
64.545769
10
-76.514620
20
64.385658
10
-76.649301
20
64.225265
10
-76.783646
20
64.064591
10
-76.917654
20
63.903635
10
-77.051324
20
63.742399
10
-77.184657
20
63.580883
10
-77.317651
20
63.419089
10
-77.450306
20
63.257016
10
-77.582621
20
63.094666
10
-77.714596
20
62.932039
10
-77.846230
20
62.769136
10
-77.977523
20
62.605958
10
-78.108473
20
62.442505
10
-78.239081
20
62.278778
10
-78.369346
20
62.114778
10
-78.499267
20
61.950506
10
-78.628843
20
61.785961
10
-78.758075
20
61.621146
10
-78.886961
20
61.456060
10
-79.015501
20
61.290705
10
-79.143695
20
61.125081
10
-79.271541
20
60.959189
10
-79.399040
20
60.793030
10
-79.526190
20
60.626604
10
-79.652992
20
60.459911
10
-79.779444
20
60.292954
10
-79.905546
20
60.125732
10
-80.031298
20
59.958247
10
-80.156698
20
59.790498
10
-80.281748
20
59.622487
10
-80.406444
20
59.454215
10
-80.530789
20
59.285682
10
-80.654779
20
59.116889
10
-80.778417
20
58.947836
10
-80.901699
20
58.778525
10
-81.024627
20
58.608956
10
-81.147200
20
58.439130
10
-81.269416
20
58.269048
10
-81.391277
20
58.098710
10
-81.512780
20
57.928117
10
-81.633925
20
57.757270
10
-81.754712
20
57.586170
10
-81.875141
20
57.414817
10
-81.995211
20
57.243213
10
-82.114921
20
57.071357
10
-82.234271
20
56.899251
10
-82.353260
20
56.726895
10
-82.471888
20
56.554290
10
-82.590154
20
56.381438
10
-82.708057
20
56.208338
10
-82.825598
20
56.034991
10
-82.942776
20
55.861399
10
-83.059590
20
55.687562
10
-83.176039
20
55.513480
10
-83.292124
20
55.339155
10
-83.407843
20
55.164587
10
-83.523197
20
54.989777
10
-83.638184
20
54.814726
10
-83.752804
20
54.639435
10
-83.867057
20
54.463904
10
-83.980942
20
54.288133
10
-84.094458
20
54.112125
10
-84.207606
20
53.935880
10
-84.320384
20
53.759397
10
-84.432793
20
53.582679
10
-84.544831
20
53.405726
10
-84.656498
20
53.228539
10
-84.767794
20
53.051118
10
-84.878718
20
52.873465
10
-84.989269
20
52.695580
10
-85.099448
20
52.517463
10
-85.209254
20
52.339116
10
-85.318686
20
52.160540
10
-85.427743
20
51.981734
10
-85.536426
20
51.802701
10
-85.644734
20
51.623440
10
-85.752666
20
51.443953
10
-85.860221
20
51.264241
10
-85.967401
20
51.084303
10
-86.074203
20
50.904142
10
-86.180627
20
50.723757
10
-86.286674
20
50.543149
10
-86.392342
20
50.362320
10
-86.497631
20
50.181270
10
-86.602540
20
50.000000
10
-86.707070
20
49.818511
10
-86.811220
20
49.636803
10
-86.914988
20
49.454877
10
-87.018375
20
49.272734
10
-87.121381
20
49.090375
10
-87.224005
20
48.907801
10
-87.326245
20
48.725013
10
-87.428103
20
48.542010
10
-87.529578
20
48.358795
10
-87.630668
20
48.175367
10
-87.731374
20
47.991729
10
-87.831695
20
47.807879
10
-87.931631
20
47.623820
10
-88.031181
20
47.439552
10
-88.130345
20
47.255076
10
-88.229123
20
47.070393
10
-88.327513
20
46.885503
10
-88.425516
20
46.700408
10
-88.523131
20
46.515108
10
-88.620358
20
46.329604
10
-88.717196
20
46.143896
10
-88.813645
20
45.957986
10
-88.909704
20
45.771875
10
-89.005374
20
45.585562
10
-89.100652
20
45.399050
10
-89.195540
20
45.212339
10
-89.290037
20
45.025429
10
-89.384142
20
44.838322
10
-89.477855
20
44.651018
10
-89.571176
20
44.463518
10
-89.664104
20
44.275823
10
-89.756638
20
44.087934
10
-89.848779
20
43.899852
10
-89.940525
20
43.711577
10
-90.031877
20
43.523110
10
-90.122834
20
43.334452
10
-90.213396
20
43.145605
10
-90.303562
20
42.956568
10
-90.393332
20
42.767342
10
-90.482705
20
42.577929
10
-90.571682
20
42.388329
10
-90.660261
20
42.198544
10
-90.748442
20
42.008573
10
-90.836226
20
41.818418
10
-90.923611
20
41.628079
10
-91.010597
20
41.437558
10
-91.097184
20
41.246855
10
-91.183371
20
41.055971
10
-91.269159
20
40.864907
10
-91.354546
20
40.673664
10
-91.439532
20
40.482243
10
-91.524117
20
40.290644
10
-91.608301
20
40.098868
10
-91.692083
20
39.906916
10
-91.775463
20
39.714789
10
-91.858440
20
39.522488
10
-91.941014
20
39.330014
10
-92.023185
20
39.137367
10
-92.104952
20
38.944548
10
-92.186315
20
38.751559
10
-92.267274
20
38.558399
10
-92.347828
20
38.365071
10
-92.427977
20
38.171574
10
-92.507721
20
37.977910
10
-92.587058
20
37.784079
10
-92.665990
20
37.590082
10
-92.744515
20
37.395921
10
-92.822634
20
37.201595
10
-92.900345
20
37.007106
10
-92.977649
20
36.812455
10
-93.054544
20
36.617643
10
-93.131032
20
36.422670
10
-93.207111
20
36.227537
10
-93.282782
20
36.032245
10
-93.358043
20
35.836795
10
-93.432894
20
35.641188
10
-93.507336
20
35.445424
10
-93.581368
20
35.249506
10
-93.654989
20
35.053432
10
-93.728199
20
34.857205
10
-93.800998
20
34.660825
10
-93.873386
20
34.464292
10
-93.945362
20
34.267609
10
-94.016925
20
34.070775
10
-94.088077
20
33.873792
10
-94.158816
20
33.676660
10
-94.229141
20
33.479381
10
-94.299054
20
33.281954
10
-94.368552
20
33.084382
10
-94.437637
20
32.886665
10
-94.506308
20
32.688803
10
-94.574563
20
32.490798
10
-94.642405
20
32.292650
10
-94.709830
20
32.094361
10
-94.776841
20
31.895931
10
-94.843436
20
31.697361
10
-94.909614
20
31.498652
10
-94.975377
20
31.299805
10
-95.040723
20
31.100820
10
-95.105652
20
30.901699
10
-95.170163
20
30.702443
10
-95.234258
20
30.503052
10
-95.297934
20
30.303527
10
-95.361193
20
30.103869
10
-95.424033
20
29.904079
10
-95.486454
20
29.704158
10
-95.548457
20
29.504107
10
-95.610041
20
29.303926
10
-95.671205
20
29.103617
10
-95.731950
20
28.903180
10
-95.792274
20
28.702616
10
-95.852179
20
28.501926
10
-95.911663
20
28.301112
10
-95.970726
20
28.100173
10
-96.029369
20
27.899111
10
-96.087590
20
27.697926
10
-96.145389
20
27.496620
10
-96.202767
20
27.295194
10
-96.259723
20
27.093647
10
-96.316257
20
26.891982
10
-96.372368
20
26.690199
10
-96.428056
20
26.488299
10
-96.483322
20
26.286282
10
-96.538164
20
26.084151
10
-96.592583
20
25.881905
10
-96.646578
20
25.679545
10
-96.700149
20
25.477073
10
-96.753296
20
25.274489
10
-96.806018
20
25.071794
10
-96.858316
20
24.868989
10
-96.910189
20
24.666075
10
-96.961637
20
24.463053
10
-97.012660
20
24.259923
10
-97.063257
20
24.056687
10
-97.113428
20
23.853346
10
-97.163173
20
23.649900
10
-97.212492
20
23.446350
10
-97.261385
20
23.242697
10
-97.309851
20
23.038943
10
-97.357890
20
22.835087
10
-97.405502
20
22.631131
10
-97.452687
20
22.427076
10
-97.499445
20
22.222923
10
-97.545774
20
22.018672
10
-97.591676
20
21.814324
10
-97.637150
20
21.609881
10
-97.682195
20
21.405343
10
-97.726812
20
21.200711
10
-97.771001
20
20.995986
10
-97.814760
20
20.791169
10
-97.858090
20
20.586261
10
-97.900992
20
20.381262
10
-97.943463
20
20.176174
10
-97.985505
20
19.970998
10
-98.027117
20
19.765734
10
-98.068300
20
19.560383
10
-98.109052
20
19.354947
10
-98.149373
20
19.149425
10
-98.189265
20
18.943820
10
-98.228725
20
18.738131
10
-98.267755
20
18.532361
10
-98.306353
20
18.326509
10
-98.344520
20
18.120576
10
-98.382256
20
17.914564
10
-98.419561
20
17.708474
10
-98.456433
20
17.502306
10
-98.492874
20
17.296061
10
-98.528883
20
17.089740
10
-98.564460
20
16.883344
10
-98.599604
20
16.676875
10
-98.634315
20
16.470332
10
-98.668594
20
16.263717
10
-98.702441
20
16.057030
10
-98.735854
20
15.850273
10
-98.768834
20
15.643447
10
-98.801381
20
15.436551
10
-98.833494
20
15.229589
10
-98.865174
20
15.022559
10
-98.896421
20
14.815463
10
-98.927233
20
14.608303
10
-98.957612
20
14.401078
10
-98.987556
20
14.193790
10
-99.017067
20
13.986440
10
-99.046143
20
13.779029
10
-99.074784
20
13.571557
10
-99.102991
20
13.364026
10
-99.130763
20
13.156436
10
-99.158100
20
12.948788
10
-99.185003
20
12.741084
10
-99.211470
20
12.533323
10
-99.237502
20
12.325508
10
-99.263099
20
12.117639
10
-99.288260
20
11.909716
10
-99.312986
20
11.701741
10
-99.337277
20
11.493715
10
-99.361131
20
11.285638
10
-99.384550
20
11.077512
10
-99.407532
20
10.869338
10
-99.430079
20
10.661115
10
-99.452190
20
10.452846
10
-99.473864
20
10.244531
10
-99.495102
20
10.036171
10
-99.515903
20
9.827768
10
-99.536268
20
9.619321
10
-99.556196
20
9.410831
10
-99.575688
20
9.202301
10
-99.594743
20
8.993730
10
-99.613361
20
8.785120
10
-99.631542
20
8.576471
10
-99.649286
20
8.367784
10
-99.666593
20
8.159061
10
-99.683462
20
7.950302
10
-99.699895
20
7.741508
10
-99.715890
20
7.532681
10
-99.731448
20
7.323820
10
-99.746568
20
7.114927
10
-99.761251
20
6.906003
10
-99.775496
20
6.697048
10
-99.789303
20
6.488064
10
-99.802673
20
6.279052
10
-99.815605
20
6.070012
10
-99.828099
20
5.860946
10
-99.840155
20
5.651853
10
-99.851773
20
5.442736
10
-99.862953
20
5.233596
10
-99.873696
20
5.024432
10
-99.884000
20
4.815246
10
-99.893866
20
4.606039
10
-99.903293
20
4.396812
10
-99.912283
20
4.187565
10
-99.920834
20
3.978301
10
-99.928947
20
3.769018
10
-99.936622
20
3.559719
10
-99.943858
20
3.350405
10
-99.950656
20
3.141076
10
-99.957015
20
2.931733
10
-99.962936
20
2.722377
10
-99.968419
20
2.513010
10
-99.973463
20
2.303631
10
-99.978068
20
2.094242
10
-99.982235
20
1.884844
10
-99.985964
20
1.675438
10
-99.989253
20
1.466024
10
-99.992104
20
1.256604
10
-99.994517
20
1.047178
10
-99.996491
20
0.837748
10
-99.998026
20
0.628314
10
-99.999123
20
0.418878
10
-99.999781
20
0.209439
10
-100.000000
20
0.000000
10
-99.999781
20
-0.209439
10
-99.999123
20
-0.418878
10
-99.998026
20
-0.628314
10
-99.996491
20
-0.837748
10
-99.994517
20
-1.047178
10
-99.992104
20
-1.256604
10
-99.989253
20
-1.466024
10
-99.985964
20
-1.675438
10
-99.982235
20
-1.884844
10
-99.978068
20
-2.094242
10
-99.973463
20
-2.303631
10
-99.968419
20
-2.513010
10
-99.962936
20
-2.722377
10
-99.957015
20
-2.931733
10
-99.950656
20
-3.141076
10
-99.943858
20
-3.350405
10
-99.936622
20
-3.559719
10
-99.928947
20
-3.769018
10
-99.920834
20
-3.978301
10
-99.912283
20
-4.187565
10
-99.903293
20
-4.396812
10
-99.893866
20
-4.606039
10
-99.884000
20
-4.815246
10
-99.873696
20
-5.024432
10
-99.862953
20
-5.233596
10
-99.851773
20
-5.442736
10
-99.840155
20
-5.651853
10
-99.828099
20
-5.860946
10
-99.815605
20
-6.070012
10
-99.802673
20
-6.279052
10
-99.789303
20
-6.488064
10
-99.775496
20
-6.697048
10
-99.761251
20
-6.906003
10
-99.746568
20
-7.114927
10
-99.731448
20
-7.323820
10
-99.715890
20
-7.532681
10
-99.699895
20
-7.741508
10
-99.683462
20
-7.950302
10
-99.666593
20
-8.159061
10
-99.649286
20
-8.367784
10
-99.631542
20
-8.576471
10
-99.613361
20
-8.785120
10
-99.594743
20
-8.993730
10
-99.575688
20
-9.202301
10
-99.556196
20
-9.410831
10
-99.536268
20
-9.619321
10
-99.515903
20
-9.827768
10
-99.495102
20
-10.036171
10
-99.473864
20
-10.244531
10
-99.452190
20
-10.452846
10
-99.430079
20
-10.661115
10
-99.407532
20
-10.869338
10
-99.384550
20
-11.077512
10
-99.361131
20
-11.285638
10
-99.337277
20
-11.493715
10
-99.312986
20
-11.701741
10
-99.288260
20
-11.909716
10
-99.263099
20
-12.117639
10
-99.237502
20
-12.325508
10
-99.211470
20
-12.533323
10
-99.185003
20
-12.741084
10
-99.158100
20
-12.948788
10
-99.130763
20
-13.156436
10
-99.102991
20
-13.364026
10
-99.074784
20
-13.571557
10
-99.046143
20
-13.779029
10
-99.017067
20
-13.986440
10
-98.987556
20
-14.193790
10
-98.957612
20
-14.401078
10
-98.927233
20
-14.608303
10
-98.896421
20
-14.815463
10
-98.865174
20
-15.022559
10
-98.833494
20
-15.229589
10
-98.801381
20
-15.436551
10
-98.768834
20
-15.643447
10
-98.735854
20
-15.850273
10
-98.702441
20
-16.057030
10
-98.668594
20
-16.263717
10
-98.634315
20
-16.470332
10
-98.599604
20
-16.676875
10
-98.564460
20
-16.883344
10
-98.528883
20
-17.089740
10
-98.492874
20
-17.296061
10
-98.456433
20
-17.502306
10
-98.419561
20
-17.708474
10
-98.382256
20
-17.914564
10
-98.344520
20
-18.120576
10
-98.306353
20
-18.326509
10
-98.267755
20
-18.532361
10
-98.228725
20
-18.738131
10
-98.189265
20
-18.943820
10
-98.149373
20
-19.149425
10
-98.109052
20
-19.354947
10
-98.068300
20
-19.560383
10
-98.027117
20
-19.765734
10
-97.985505
20
-19.970998
10
-97.943463
20
-20.176174
10
-97.900992
20
-20.381262
10
-97.858090
20
-20.586261
10
-97.814760
20
-20.791169
10
-97.771001
20
-20.995986
10
-97.726812
20
-21.200711
10
-97.682195
20
-21.405343
10
-97.637150
20
-21.609881
10
-97.591676
20
-21.814324
10
-97.545774
20
-22.018672
10
-97.499445
20
-22.222923
10
-97.452687
20
-22.427076
10
-97.405502
20
-22.631131
10
-97.357890
20
-22.835087
10
-97.309851
20
-23.038943
10
-97.261385
20
-23.242697
10
-97.212492
20
-23.446350
10
-97.163173
20
-23.649900
10
-97.113428
20
-23.853346
10
-97.063257
20
-24.056687
10
-97.012660
20
-24.259923
10
-96.961637
20
-24.463053
10
-96.910189
20
-24.666075
10
-96.858316
20
-24.868989
10
-96.806018
20
-25.071794
10
-96.753296
20
-25.274489
10
-96.700149
20
-25.477073
10
-96.646578
20
-25.679545
10
-96.592583
20
-25.881905
10
-96.538164
20
-26.084151
10
-96.483322
20
-26.286282
10
-96.428056
20
-26.488299
10
-96.372368
20
-26.690199
10
-96.316257
20
-26.891982
10
-96.259723
20
-27.093647
10
-96.202767
20
-27.295194
10
-96.145389
20
-27.496620
10
-96.087590
20
-27.697926
10
-96.029369
20
-27.899111
10
-95.970726
20
-28.100173
10
-95.911663
20
-28.301112
10
-95.852179
20
-28.501926
10
-95.792274
20
-28.702616
10
-95.731950
20
-28.903180
10
-95.671205
20
-29.103617
10
-95.610041
20
-29.303926
10
-95.548457
20
-29.504107
10
-95.486454
20
-29.704158
10
-95.424033
20
-29.904079
10
-95.361193
20
-30.103869
10
-95.297934
20
-30.303527
10
-95.234258
20
-30.503052
10
-95.170163
20
-30.702443
10
-95.105652
20
-30.901699
10
-95.040723
20
-31.100820
10
-94.975377
20
-31.299805
10
-94.909614
20
-31.498652
10
-94.843436
20
-31.697361
10
-94.776841
20
-31.895931
10
-94.709830
20
-32.094361
10
-94.642405
20
-32.292650
10
-94.574563
20
-32.490798
10
-94.506308
20
-32.688803
10
-94.437637
20
-32.886665
10
-94.368552
20
-33.084382
10
-94.299054
20
-33.281954
10
-94.229141
20
-33.479381
10
-94.158816
20
-33.676660
10
-94.088077
20
-33.873792
10
-94.016925
20
-34.070775
10
-93.945362
20
-34.267609
10
-93.873386
20
-34.464292
10
-93.800998
20
-34.660825
10
-93.728199
20
-34.857205
10
-93.654989
20
-35.053432
10
-93.581368
20
-35.249506
10
-93.507336
20
-35.445424
10
-93.432894
20
-35.641188
10
-93.358043
20
-35.836795
10
-93.282782
20
-36.032245
10
-93.207111
20
-36.227537
10
-93.131032
20
-36.422670
10
-93.054544
20
-36.617643
10
-92.977649
20
-36.812455
10
-92.900345
20
-37.007106
10
-92.822634
20
-37.201595
10
-92.744515
20
-37.395921
10
-92.665990
20
-37.590082
10
-92.587058
20
-37.784079
10
-92.507721
20
-37.977910
10
-92.427977
20
-38.171574
10
-92.347828
20
-38.365071
10
-92.267274
20
-38.558399
10
-92.186315
20
-38.751559
10
-92.104952
20
-38.944548
10
-92.023185
20
-39.137367
10
-91.941014
20
-39.330014
10
-91.858440
20
-39.522488
10
-91.775463
20
-39.714789
10
-91.692083
20
-39.906916
10
-91.608301
20
-40.098868
10
-91.524117
20
-40.290644
10
-91.439532
20
-40.482243
10
-91.354546
20
-40.673664
10
-91.269159
20
-40.864907
10
-91.183371
20
-41.055971
10
-91.097184
20
-41.246855
10
-91.010597
20
-41.437558
10
-90.923611
20
-41.628079
10
-90.836226
20
-41.818418
10
-90.748442
20
-42.008573
10
-90.660261
20
-42.198544
10
-90.571682
20
-42.388329
10
-90.482705
20
-42.577929
10
-90.393332
20
-42.767342
10
-90.303562
20
-42.956568
10
-90.213396
20
-43.145605
10
-90.122834
20
-43.334452
10
-90.031877
20
-43.523110
10
-89.940525
20
-43.711577
10
-89.848779
20
-43.899852
10
-89.756638
20
-44.087934
10
-89.664104
20
-44.275823
10
-89.571176
20
-44.463518
10
-89.477855
20
-44.651018
10
-89.384142
20
-44.838322
10
-89.290037
20
-45.025429
10
-89.195540
20
-45.212339
10
-89.100652
20
-45.399050
10
-89.005374
20
-45.585562
10
-88.909704
20
-45.771875
10
-88.813645
20
-45.957986
10
-88.717196
20
-46.143896
10
-88.620358
20
-46.329604
10
-88.523131
20
-46.515108
10
-88.425516
20
-46.700408
10
-88.327513
20
-46.885503
10
-88.229123
20
-47.070393
10
-88.130345
20
-47.255076
10
-88.031181
20
-47.439552
10
-87.931631
20
-47.623820
10
-87.831695
20
-47.807879
10
-87.731374
20
-47.991729
10
-87.630668
20
-48.175367
10
-87.529578
20
-48.358795
10
-87.428103
20
-48.542010
10
-87.326245
20
-48.725013
10
-87.224005
20
-48.907801
10
-87.121381
20
-49.090375
10
-87.018375
20
-49.272734
10
-86.914988
20
-49.454877
10
-86.811220
20
-49.636803
10
-86.707070
20
-49.818511
10
-86.602540
20
-50.000000
10
-86.497631
20
-50.181270
10
-86.392342
20
-50.362320
10
-86.286674
20
-50.543149
10
-86.180627
20
-50.723757
10
-86.074203
20
-50.904142
10
-85.967401
20
-51.084303
10
-85.860221
20
-51.264241
10
-85.752666
20
-51.443953
10
-85.644734
20
-51.623440
10
-85.536426
20
-51.802701
10
-85.427743
20
-51.981734
10
-85.318686
20
-52.160540
10
-85.209254
20
-52.339116
10
-85.099448
20
-52.517463
10
-84.989269
20
-52.695580
10
-84.878718
20
-52.873465
10
-84.767794
20
-53.051118
10
-84.656498
20
-53.228539
10
-84.544831
20
-53.405726
10
-84.432793
20
-53.582679
10
-84.320384
20
-53.759397
10
-84.207606
20
-53.935880
10
-84.094458
20
-54.112125
10
-83.980942
20
-54.288133
10
-83.867057
20
-54.463904
10
-83.752804
20
-54.639435
10
-83.638184
20
-54.814726
10
-83.523197
20
-54.989777
10
-83.407843
20
-55.164587
10
-83.292124
20
-55.339155
10
-83.176039
20
-55.513480
10
-83.059590
20
-55.687562
10
-82.942776
20
-55.861399
10
-82.825598
20
-56.034991
10
-82.708057
20
-56.208338
10
-82.590154
20
-56.381438
10
-82.471888
20
-56.554290
10
-82.353260
20
-56.726895
10
-82.234271
20
-56.899251
10
-82.114921
20
-57.071357
10
-81.995211
20
-57.243213
10
-81.875141
20
-57.414817
10
-81.754712
20
-57.586170
10
-81.633925
20
-57.757270
10
-81.512780
20
-57.928117
10
-81.391277
20
-58.098710
10
-81.269416
20
-58.269048
10
-81.147200
20
-58.439130
10
-81.024627
20
-58.608956
10
-80.901699
20
-58.778525
10
-80.778417
20
-58.947836
10
-80.654779
20
-59.116889
10
-80.530789
20
-59.285682
10
-80.406444
20
-59.454215
10
-80.281748
20
-59.622487
10
-80.156698
20
-59.790498
10
-80.031298
20
-59.958247
10
-79.905546
20
-60.125732
10
-79.779444
20
-60.292954
10
-79.652992
20
-60.459911
10
-79.526190
20
-60.626604
10
-79.399040
20
-60.793030
10
-79.271541
20
-60.959189
10
-79.143695
20
-61.125081
10
-79.015501
20
-61.290705
10
-78.886961
20
-61.456060
10
-78.758075
20
-61.621146
10
-78.628843
20
-61.785961
10
-78.499267
20
-61.950506
10
-78.369346
20
-62.114778
10
-78.239081
20
-62.278778
10
-78.108473
20
-62.442505
10
-77.977523
20
-62.605958
10
-77.846230
20
-62.769136
10
-77.714596
20
-62.932039
10
-77.582621
20
-63.094666
10
-77.450306
20
-63.257016
10
-77.317651
20
-63.419089
10
-77.184657
20
-63.580883
10
-77.051324
20
-63.742399
10
-76.917654
20
-63.903635
10
-76.783646
20
-64.064591
10
-76.649301
20
-64.225265
10
-76.514620
20
-64.385658
10
-76.379603
20
-64.545769
10
-76.244251
20
-64.705596
10
-76.108565
20
-64.865140
10
-75.972545
20
-65.024399
10
-75.836192
20
-65.183373
10
-75.699506
20
-65.342060
10
-75.562488
20
-65.500462
10
-75.425138
20
-65.658576
10
-75.287458
20
-65.816401
10
-75.149447
20
-65.973939
10
-75.011107
20
-66.131187
10
-74.872438
20
-66.288144
10
-74.733440
20
-66.444811
10
-74.594115
20
-66.601187
10
-74.454462
20
-66.757270
10
-74.314483
20
-66.913061
10
-74.174177
20
-67.068558
10
-74.033547
20
-67.223760
10
-73.892591
20
-67.378668
10
-73.751312
20
-67.533281
10
-73.609709
20
-67.687597
10
-73.467783
20
-67.841616
10
-73.325535
20
-67.995338
10
-73.182965
20
-68.148761
10
-73.040074
20
-68.301886
10
-72.896863
20
-68.454711
10
-72.753332
20
-68.607235
10
-72.609482
20
-68.759459
10
-72.465313
20
-68.911381
10
-72.320827
20
-69.063001
10
-72.176023
20
-69.214317
10
-72.030902
20
-69.365331
10
-71.885466
20
-69.516040
10
-71.739715
20
-69.666443
10
-71.593648
20
-69.816542
10
-71.447268
20
-69.966334
10
-71.300574
20
-70.115819
10
-71.153568
20
-70.264997
10
-71.006249
20
-70.413866
10
-70.858619
20
-70.562427
10
-70.710678
20
-70.710678
10
-70.562427
20
-70.858619
10
-70.413866
20
-71.006249
10
-70.264997
20
-71.153568
10
-70.115819
20
-71.300574
10
-69.966334
20
-71.447268
10
-69.816542
20
-71.593648
10
-69.666443
20
-71.739715
10
-69.516040
20
-71.885466
10
-69.365331
20
-72.030902
10
-69.214317
20
-72.176023
10
-69.063001
20
-72.320827
10
-68.911381
20
-72.465313
10
-68.759459
20
-72.609482
10
-68.607235
20
-72.753332
10
-68.454711
20
-72.896863
10
-68.301886
20
-73.040074
10
-68.148761
20
-73.182965
10
-67.995338
20
-73.325535
10
-67.841616
20
-73.467783
10
-67.687597
20
-73.609709
10
-67.533281
20
-73.751312
10
-67.378668
20
-73.892591
10
-67.223760
20
-74.033547
10
-67.068558
20
-74.174177
10
-66.913061
20
-74.314483
10
-66.757270
20
-74.454462
10
-66.601187
20
-74.594115
10
-66.444811
20
-74.733440
10
-66.288144
20
-74.872438
10
-66.131187
20
-75.011107
10
-65.973939
20
-75.149447
10
-65.816401
20
-75.287458
10
-65.658576
20
-75.425138
10
-65.500462
20
-75.562488
10
-65.342060
20
-75.699506
10
-65.183373
20
-75.836192
10
-65.024399
20
-75.972545
10
-64.865140
20
-76.108565
10
-64.705596
20
-76.244251
10
-64.545769
20
-76.379603
10
-64.385658
20
-76.514620
10
-64.225265
20
-76.649301
10
-64.064591
20
-76.783646
10
-63.903635
20
-76.917654
10
-63.742399
20
-77.051324
10
-63.580883
20
-77.184657
10
-63.419089
20
-77.317651
10
-63.257016
20
-77.450306
10
-63.094666
20
-77.582621
10
-62.932039
20
-77.714596
10
-62.769136
20
-77.846230
10
-62.605958
20
-77.977523
10
-62.442505
20
-78.108473
10
-62.278778
20
-78.239081
10
-62.114778
20
-78.369346
10
-61.950506
20
-78.499267
10
-61.785961
20
-78.628843
10
-61.621146
20
-78.758075
10
-61.456060
20
-78.886961
10
-61.290705
20
-79.015501
10
-61.125081
20
-79.143695
10
-60.959189
20
-79.271541
10
-60.793030
20
-79.399040
10
-60.626604
20
-79.526190
10
-60.459911
20
-79.652992
10
-60.292954
20
-79.779444
10
-60.125732
20
-79.905546
10
-59.958247
20
-80.031298
10
-59.790498
20
-80.156698
10
-59.622487
20
-80.281748
10
-59.454215
20
-80.406444
10
-59.285682
20
-80.530789
10
-59.116889
20
-80.654779
10
-58.947836
20
-80.778417
10
-58.778525
20
-80.901699
10
-58.608956
20
-81.024627
10
-58.439130
20
-81.147200
10
-58.269048
20
-81.269416
10
-58.098710
20
-81.391277
10
-57.928117
20
-81.512780
10
-57.757270
20
-81.633925
10
-57.586170
20
-81.754712
10
-57.414817
20
-81.875141
10
-57.243213
20
-81.995211
10
-57.071357
20
-82.114921
10
-56.899251
20
-82.234271
10
-56.726895
20
-82.353260
10
-56.554290
20
-82.471888
10
-56.381438
20
-82.590154
10
-56.208338
20
-82.708057
10
-56.034991
20
-82.825598
10
-55.861399
20
-82.942776
10
-55.687562
20
-83.059590
10
-55.513480
20
-83.176039
10
-55.339155
20
-83.292124
10
-55.164587
20
-83.407843
10
-54.989777
20
-83.523197
10
-54.814726
20
-83.638184
10
-54.639435
20
-83.752804
10
-54.463904
20
-83.867057
10
-54.288133
20
-83.980942
10
-54.112125
20
-84.094458
10
-53.935880
20
-84.207606
10
-53.759397
20
-84.320384
10
-53.582679
20
-84.432793
10
-53.405726
20
-84.544831
10
-53.228539
20
-84.656498
10
-53.051118
20
-84.767794
10
-52.873465
20
-84.878718
10
-52.695580
20
-84.989269
10
-52.517463
20
-85.099448
10
-52.339116
20
-85.209254
10
-52.160540
20
-85.318686
10
-51.981734
20
-85.427743
10
-51.802701
20
-85.536426
10
-51.623440
20
-85.644734
10
-51.443953
20
-85.752666
10
-51.264241
20
-85.860221
10
-51.084303
20
-85.967401
10
-50.904142
20
-86.074203
10
-50.723757
20
-86.180627
10
-50.543149
20
-86.286674
10
-50.362320
20
-86.392342
10
-50.181270
20
-86.497631
10
-50.000000
20
-86.602540
10
-49.818511
20
-86.707070
10
-49.636803
20
-86.811220
10
-49.454877
20
-86.914988
10
-49.272734
20
-87.018375
10
-49.090375
20
-87.121381
10
-48.907801
20
-87.224005
10
-48.725013
20
-87.326245
10
-48.542010
20
-87.428103
10
-48.358795
20
-87.529578
10
-48.175367
20
-87.630668
10
-47.991729
20
-87.731374
10
-47.807879
20
-87.831695
10
-47.623820
20
-87.931631
10
-47.439552
20
-88.031181
10
-47.255076
20
-88.130345
10
-47.070393
20
-88.229123
10
-46.885503
20
-88.327513
10
-46.700408
20
-88.425516
10
-46.515108
20
-88.523131
10
-46.329604
20
-88.620358
10
-46.143896
20
-88.717196
10
-45.957986
20
-88.813645
10
-45.771875
20
-88.909704
10
-45.585562
20
-89.005374
10
-45.399050
20
-89.100652
10
-45.212339
20
-89.195540
10
-45.025429
20
-89.290037
10
-44.838322
20
-89.384142
10
-44.651018
20
-89.477855
10
-44.463518
20
-89.571176
10
-44.275823
20
-89.664104
10
-44.087934
20
-89.756638
10
-43.899852
20
-89.848779
10
-43.711577
20
-89.940525
10
-43.523110
20
-90.031877
10
-43.334452
20
-90.122834
10
-43.145605
20
-90.213396
10
-42.956568
20
-90.303562
10
-42.767342
20
-90.393332
10
-42.577929
20
-90.482705
10
-42.388329
20
-90.571682
10
-42.198544
20
-90.660261
10
-42.008573
20
-90.748442
10
-41.818418
20
-90.836226
10
-41.628079
20
-90.923611
10
-41.437558
20
-91.010597
10
-41.246855
20
-91.097184
10
-41.055971
20
-91.183371
10
-40.864907
20
-91.269159
10
-40.673664
20
-91.354546
10
-40.482243
20
-91.439532
10
-40.290644
20
-91.524117
10
-40.098868
20
-91.608301
10
-39.906916
20
-91.692083
10
-39.714789
20
-91.775463
10
-39.522488
20
-91.858440
10
-39.330014
20
-91.941014
10
-39.137367
20
-92.023185
10
-38.944548
20
-92.104952
10
-38.751559
20
-92.186315
10
-38.558399
20
-92.267274
10
-38.365071
20
-92.347828
10
-38.171574
20
-92.427977
10
-37.977910
20
-92.507721
10
-37.784079
20
-92.587058
10
-37.590082
20
-92.665990
10
-37.395921
20
-92.744515
10
-37.201595
20
-92.822634
10
-37.007106
20
-92.900345
10
-36.812455
20
-92.977649
10
-36.617643
20
-93.054544
10
-36.422670
20
-93.131032
10
-36.227537
20
-93.207111
10
-36.032245
20
-93.282782
10
-35.836795
20
-93.358043
10
-35.641188
20
-93.432894
10
-35.445424
20
-93.507336
10
-35.249506
20
-93.581368
10
-35.053432
20
-93.654989
10
-34.857205
20
-93.728199
10
-34.660825
20
-93.800998
10
-34.464292
20
-93.873386
10
-34.267609
20
-93.945362
10
-34.070775
20
-94.016925
10
-33.873792
20
-94.088077
10
-33.676660
20
-94.158816
10
-33.479381
20
-94.229141
10
-33.281954
20
-94.299054
10
-33.084382
20
-94.368552
10
-32.886665
20
-94.437637
10
-32.688803
20
-94.506308
10
-32.490798
20
-94.574563
10
-32.292650
20
-94.642405
10
-32.094361
20
-94.709830
10
-31.895931
20
-94.776841
10
-31.697361
20
-94.843436
10
-31.498652
20
-94.909614
10
-31.299805
20
-94.975377
10
-31.100820
20
-95.040723
10
-30.901699
20
-95.105652
10
-30.702443
20
-95.170163
10
-30.503052
20
-95.234258
10
-30.303527
20
-95.297934
10
-30.103869
20
-95.361193
10
-29.904079
20
-95.424033
10
-29.704158
20
-95.486454
10
-29.504107
20
-95.548457
10
-29.303926
20
-95.610041
10
-29.103617
20
-95.671205
10
-28.903180
20
-95.731950
10
-28.702616
20
-95.792274
10
-28.501926
20
-95.852179
10
-28.301112
20
-95.911663
10
-28.100173
20
-95.970726
10
-27.899111
20
-96.029369
10
-27.697926
20
-96.087590
10
-27.496620
20
-96.145389
10
-27.295194
20
-96.202767
10
-27.093647
20
-96.259723
10
-26.891982
20
-96.316257
10
-26.690199
20
-96.372368
10
-26.488299
20
-96.428056
10
-26.286282
20
-96.483322
10
-26.084151
20
-96.538164
10
-25.881905
20
-96.592583
10
-25.679545
20
-96.646578
10
-25.477073
20
-96.700149
10
-25.274489
20
-96.753296
10
-25.071794
20
-96.806018
10
-24.868989
20
-96.858316
10
-24.666075
20
-96.910189
10
-24.463053
20
-96.961637
10
-24.259923
20
-97.012660
10
-24.056687
20
-97.063257
10
-23.853346
20
-97.113428
10
-23.649900
20
-97.163173
10
-23.446350
20
-97.212492
10
-23.242697
20
-97.261385
10
-23.038943
20
-97.309851
10
-22.835087
20
-97.357890
10
-22.631131
20
-97.405502
10
-22.427076
20
-97.452687
10
-22.222923
20
-97.499445
10
-22.018672
20
-97.545774
10
-21.814324
20
-97.591676
10
-21.609881
20
-97.637150
10
-21.405343
20
-97.682195
10
-21.200711
20
-97.726812
10
-20.995986
20
-97.771001
10
-20.791169
20
-97.814760
10
-20.586261
20
-97.858090
10
-20.381262
20
-97.900992
10
-20.176174
20
-97.943463
10
-19.970998
20
-97.985505
10
-19.765734
20
-98.027117
10
-19.560383
20
-98.068300
10
-19.354947
20
-98.109052
10
-19.149425
20
-98.149373
10
-18.943820
20
-98.189265
10
-18.738131
20
-98.228725
10
-18.532361
20
-98.267755
10
-18.326509
20
-98.306353
10
-18.120576
20
-98.344520
10
-17.914564
20
-98.382256
10
-17.708474
20
-98.419561
10
-17.502306
20
-98.456433
10
-17.296061
20
-98.492874
10
-17.089740
20
-98.528883
10
-16.883344
20
-98.564460
10
-16.676875
20
-98.599604
10
-16.470332
20
-98.634315
10
-16.263717
20
-98.668594
10
-16.057030
20
-98.702441
10
-15.850273
20
-98.735854
10
-15.643447
20
-98.768834
10
-15.436551
20
-98.801381
10
-15.229589
20
-98.833494
10
-15.022559
20
-98.865174
10
-14.815463
20
-98.896421
10
-14.608303
20
-98.927233
10
-14.401078
20
-98.957612
10
-14.193790
20
-98.987556
10
-13.986440
20
-99.017067
10
-13.779029
20
-99.046143
10
-13.571557
20
-99.074784
10
-13.364026
20
-99.102991
10
-13.156436
20
-99.130763
10
-12.948788
20
-99.158100
10
-12.741084
20
-99.185003
10
-12.533323
20
-99.211470
10
-12.325508
20
-99.237502
10
-12.117639
20
-99.263099
10
-11.909716
20
-99.288260
10
-11.701741
20
-99.312986
10
-11.493715
20
-99.337277
10
-11.285638
20
-99.361131
10
-11.077512
20
-99.384550
10
-10.869338
20
-99.407532
10
-10.661115
20
-99.430079
10
-10.452846
20
-99.452190
10
-10.244531
20
-99.473864
10
-10.036171
20
-99.495102
10
-9.827768
20
-99.515903
10
-9.619321
20
-99.536268
10
-9.410831
20
-99.556196
10
-9.202301
20
-99.575688
10
-8.993730
20
-99.594743
10
-8.785120
20
-99.613361
10
-8.576471
20
-99.631542
10
-8.367784
20
-99.649286
10
-8.159061
20
-99.666593
10
-7.950302
20
-99.683462
10
-7.741508
20
-99.699895
10
-7.532681
20
-99.715890
10
-7.323820
20
-99.731448
10
-7.114927
20
-99.746568
10
-6.906003
20
-99.761251
10
-6.697048
20
-99.775496
10
-6.488064
20
-99.789303
10
-6.279052
20
-99.802673
10
-6.070012
20
-99.815605
10
-5.860946
20
-99.828099
10
-5.651853
20
-99.840155
10
-5.442736
20
-99.851773
10
-5.233596
20
-99.862953
10
-5.024432
20
-99.873696
10
-4.815246
20
-99.884000
10
-4.606039
20
-99.893866
10
-4.396812
20
-99.903293
10
-4.187565
20
-99.912283
10
-3.978301
20
-99.920834
10
-3.769018
20
-99.928947
10
-3.559719
20
-99.936622
10
-3.350405
20
-99.943858
10
-3.141076
20
-99.950656
10
-2.931733
20
-99.957015
10
-2.722377
20
-99.962936
10
-2.513010
20
-99.968419
10
-2.303631
20
-99.973463
10
-2.094242
20
-99.978068
10
-1.884844
20
-99.982235
10
-1.675438
20
-99.985964
10
-1.466024
20
-99.989253
10
-1.256604
20
-99.992104
10
-1.047178
20
-99.994517
10
-0.837748
20
-99.996491
10
-0.628314
20
-99.998026
10
-0.418878
20
-99.999123
10
-0.209439
20
-99.999781
10
-0.000000
20
-100.000000
10
0.209439
20
-99.999781
10
0.418878
20
-99.999123
10
0.628314
20
-99.998026
10
0.837748
20
-99.996491
10
1.047178
20
-99.994517
10
1.256604
20
-99.992104
10
1.466024
20
-99.989253
10
1.675438
20
-99.985964
10
1.884844
20
-99.982235
10
2.094242
20
-99.978068
10
2.303631
20
-99.973463
10
2.513010
20
-99.968419
10
2.722377
20
-99.962936
10
2.931733
20
-99.957015
10
3.141076
20
-99.950656
10
3.350405
20
-99.943858
10
3.559719
20
-99.936622
10
3.769018
20
-99.928947
10
3.978301
20
-99.920834
10
4.187565
20
-99.912283
10
4.396812
20
-99.903293
10
4.606039
20
-99.893866
10
4.815246
20
-99.884000
10
5.024432
20
-99.873696
10
5.233596
20
-99.862953
10
5.442736
20
-99.851773
10
5.651853
20
-99.840155
10
5.860946
20
-99.828099
10
6.070012
20
-99.815605
10
6.279052
20
-99.802673
10
6.488064
20
-99.789303
10
6.697048
20
-99.775496
10
6.906003
20
-99.761251
10
7.114927
20
-99.746568
10
7.323820
20
-99.731448
10
7.532681
20
-99.715890
10
7.741508
20
-99.699895
10
7.950302
20
-99.683462
10
8.159061
20
-99.666593
10
8.367784
20
-99.649286
10
8.576471
20
-99.631542
10
8.785120
20
-99.613361
10
8.993730
20
-99.594743
10
9.202301
20
-99.575688
10
9.410831
20
-99.556196
10
9.619321
20
-99.536268
10
9.827768
20
-99.515903
10
10.036171
20
-99.495102
10
10.244531
20
-99.473864
10
10.452846
20
-99.452190
10
10.661115
20
-99.430079
10
10.869338
20
-99.407532
10
11.077512
20
-99.384550
10
11.285638
20
-99.361131
10
11.493715
20
-99.337277
10
11.701741
20
-99.312986
10
11.909716
20
-99.288260
10
12.117639
20
-99.263099
10
12.325508
20
-99.237502
10
12.533323
20
-99.211470
10
12.741084
20
-99.185003
10
12.948788
20
-99.158100
10
13.156436
20
-99.130763
10
13.364026
20
-99.102991
10
13.571557
20
-99.074784
10
13.779029
20
-99.046143
10
13.986440
20
-99.017067
10
14.193790
20
-98.987556
10
14.401078
20
-98.957612
10
14.608303
20
-98.927233
10
14.815463
20
-98.896421
10
15.022559
20
-98.865174
10
15.229589
20
-98.833494
10
15.436551
20
-98.801381
10
15.643447
20
-98.768834
10
15.850273
20
-98.735854
10
16.057030
20
-98.702441
10
16.263717
20
-98.668594
10
16.470332
20
-98.634315
10
16.676875
20
-98.599604
10
16.883344
20
-98.564460
10
17.089740
20
-98.528883
10
17.296061
20
-98.492874
10
17.502306
20
-98.456433
10
17.708474
20
-98.419561
10
17.914564
20
-98.382256
10
18.120576
20
-98.344520
10
18.326509
20
-98.306353
10
18.532361
20
-98.267755
10
18.738131
20
-98.228725
10
18.943820
20
-98.189265
10
19.149425
20
-98.149373
10
19.354947
20
-98.109052
10
19.560383
20
-98.068300
10
19.765734
20
-98.027117
10
19.970998
20
-97.985505
10
20.176174
20
-97.943463
10
20.381262
20
-97.900992
10
20.586261
20
-97.858090
10
20.791169
20
-97.814760
10
20.995986
20
-97.771001
10
21.200711
20
-97.726812
10
21.405343
20
-97.682195
10
21.609881
20
-97.637150
10
21.814324
20
-97.591676
10
22.018672
20
-97.545774
10
22.222923
20
-97.499445
10
22.427076
20
-97.452687
10
22.631131
20
-97.405502
10
22.835087
20
-97.357890
10
23.038943
20
-97.309851
10
23.242697
20
-97.261385
10
23.446350
20
-97.212492
10
23.649900
20
-97.163173
10
23.853346
20
-97.113428
10
24.056687
20
-97.063257
10
24.259923
20
-97.012660
10
24.463053
20
-96.961637
10
24.666075
20
-96.910189
10
24.868989
20
-96.858316
10
25.071794
20
-96.806018
10
25.274489
20
-96.753296
10
25.477073
20
-96.700149
10
25.679545
20
-96.646578
10
25.881905
20
-96.592583
10
26.084151
20
-96.538164
10
26.286282
20
-96.483322
10
26.488299
20
-96.428056
10
26.690199
20
-96.372368
10
26.891982
20
-96.316257
10
27.093647
20
-96.259723
10
27.295194
20
-96.202767
10
27.496620
20
-96.145389
10
27.697926
20
-96.087590
10
27.899111
20
-96.029369
10
28.100173
20
-95.970726
10
28.301112
20
-95.911663
10
28.501926
20
-95.852179
10
28.702616
20
-95.792274
10
28.903180
20
-95.731950
10
29.103617
20
-95.671205
10
29.303926
20
-95.610041
10
29.504107
20
-95.548457
10
29.704158
20
-95.486454
10
29.904079
20
-95.424033
10
30.103869
20
-95.361193
10
30.303527
20
-95.297934
10
30.503052
20
-95.234258
10
30.702443
20
-95.170163
10
30.901699
20
-95.105652
10
31.100820
20
-95.040723
10
31.299805
20
-94.975377
10
31.498652
20
-94.909614
10
31.697361
20
-94.843436
10
31.895931
20
-94.776841
10
32.094361
20
-94.709830
10
32.292650
20
-94.642405
10
32.490798
20
-94.574563
10
32.688803
20
-94.506308
10
32.886665
20
-94.437637
10
33.084382
20
-94.368552
10
33.281954
20
-94.299054
10
33.479381
20
-94.229141
10
33.676660
20
-94.158816
10
33.873792
20
-94.088077
10
34.070775
20
-94.016925
10
34.267609
20
-93.945362
10
34.464292
20
-93.873386
10
34.660825
20
-93.800998
10
34.857205
20
-93.728199
10
35.053432
20
-93.654989
10
35.249506
20
-93.581368
10
35.445424
20
-93.507336
10
35.641188
20
-93.432894
10
35.836795
20
-93.358043
10
36.032245
20
-93.282782
10
36.227537
20
-93.207111
10
36.422670
20
-93.131032
10
36.617643
20
-93.054544
10
36.812455
20
-92.977649
10
37.007106
20
-92.900345
10
37.201595
20
-92.822634
10
37.395921
20
-92.744515
10
37.590082
20
-92.665990
10
37.784079
20
-92.587058
10
37.977910
20
-92.507721
10
38.171574
20
-92.427977
10
38.365071
20
-92.347828
10
38.558399
20
-92.267274
10
38.751559
20
-92.186315
10
38.944548
20
-92.104952
10
39.137367
20
-92.023185
10
39.330014
20
-91.941014
10
39.522488
20
-91.858440
10
39.714789
20
-91.775463
10
39.906916
20
-91.692083
10
40.098868
20
-91.608301
10
40.290644
20
-91.524117
10
40.482243
20
-91.439532
10
40.673664
20
-91.354546
10
40.864907
20
-91.269159
10
41.055971
20
-91.183371
10
41.246855
20
-91.097184
10
41.437558
20
-91.010597
10
41.628079
20
-90.923611
10
41.818418
20
-90.836226
10
42.008573
20
-90.748442
10
42.198544
20
-90.660261
10
42.388329
20
-90.571682
10
42.577929
20
-90.482705
10
42.767342
20
-90.393332
10
42.956568
20
-90.303562
10
43.145605
20
-90.213396
10
43.334452
20
-90.122834
10
43.523110
20
-90.031877
10
43.711577
20
-89.940525
10
43.899852
20
-89.848779
10
44.087934
20
-89.756638
10
44.275823
20
-89.664104
10
44.463518
20
-89.571176
10
44.651018
20
-89.477855
10
44.838322
20
-89.384142
10
45.025429
20
-89.290037
10
45.212339
20
-89.195540
10
45.399050
20
-89.100652
10
45.585562
20
-89.005374
10
45.771875
20
-88.909704
10
45.957986
20
-88.813645
10
46.143896
20
-88.717196
10
46.329604
20
-88.620358
10
46.515108
20
-88.523131
10
46.700408
20
-88.425516
10
46.885503
20
-88.327513
10
47.070393
20
-88.229123
10
47.255076
20
-88.130345
10
47.439552
20
-88.031181
10
47.623820
20
-87.931631
10
47.807879
20
-87.831695
10
47.991729
20
-87.731374
10
48.175367
20
-87.630668
10
48.358795
20
-87.529578
10
48.542010
20
-87.428103
10
48.725013
20
-87.326245
10
48.907801
20
-87.224005
10
49.090375
20
-87.121381
10
49.272734
20
-87.018375
10
49.454877
20
-86.914988
10
49.636803
20
-86.811220
10
49.818511
20
-86.707070
10
50.000000
20
-86.602540
10
50.181270
20
-86.497631
10
50.362320
20
-86.392342
10
50.543149
20
-86.286674
10
50.723757
20
-86.180627
10
50.904142
20
-86.074203
10
51.084303
20
-85.967401
10
51.264241
20
-85.860221
10
51.443953
20
-85.752666
10
51.623440
20
-85.644734
10
51.802701
20
-85.536426
10
51.981734
20
-85.427743
10
52.160540
20
-85.318686
10
52.339116
20
-85.209254
10
52.517463
20
-85.099448
10
52.695580
20
-84.989269
10
52.873465
20
-84.878718
10
53.051118
20
-84.767794
10
53.228539
20
-84.656498
10
53.405726
20
-84.544831
10
53.582679
20
-84.432793
10
53.759397
20
-84.320384
10
53.935880
20
-84.207606
10
54.112125
20
-84.094458
10
54.288133
20
-83.980942
10
54.463904
20
-83.867057
10
54.639435
20
-83.752804
10
54.814726
20
-83.638184
10
54.989777
20
-83.523197
10
55.164587
20
-83.407843
10
55.339155
20
-83.292124
10
55.513480
20
-83.176039
10
55.687562
20
-83.059590
10
55.861399
20
-82.942776
10
56.034991
20
-82.825598
10
56.208338
20
-82.708057
10
56.381438
20
-82.590154
10
56.554290
20
-82.471888
10
56.726895
20
-82.353260
10
56.899251
20
-82.234271
10
57.071357
20
-82.114921
10
57.243213
20
-81.995211
10
57.414817
20
-81.875141
10
57.586170
20
-81.754712
10
57.757270
20
-81.633925
10
57.928117
20
-81.512780
10
58.098710
20
-81.391277
10
58.269048
20
-81.269416
10
58.439130
20
-81.147200
10
58.608956
20
-81.024627
10
58.778525
20
-80.901699
10
58.947836
20
-80.778417
10
59.116889
20
-80.654779
10
59.285682
20
-80.530789
10
59.454215
20
-80.406444
10
59.622487
20
-80.281748
10
59.790498
20
-80.156698
10
59.958247
20
-80.031298
10
60.125732
20
-79.905546
10
60.292954
20
-79.779444
10
60.459911
20
-79.652992
10
60.626604
20
-79.526190
10
60.793030
20
-79.399040
10
60.959189
20
-79.271541
10
61.125081
20
-79.143695
10
61.290705
20
-79.015501
10
61.456060
20
-78.886961
10
61.621146
20
-78.758075
10
61.785961
20
-78.628843
10
61.950506
20
-78.499267
10
62.114778
20
-78.369346
10
62.278778
20
-78.239081
10
62.442505
20
-78.108473
10
62.605958
20
-77.977523
10
62.769136
20
-77.846230
10
62.932039
20
-77.714596
10
63.094666
20
-77.582621
10
63.257016
20
-77.450306
10
63.419089
20
-77.317651
10
63.580883
20
-77.184657
10
63.742399
20
-77.051324
10
63.903635
20
-76.917654
10
64.064591
20
-76.783646
10
64.225265
20
-76.649301
10
64.385658
20
-76.514620
10
64.545769
20
-76.379603
10
64.705596
20
-76.244251
10
64.865140
20
-76.108565
10
65.024399
20
-75.972545
10
65.183373
20
-75.836192
10
65.342060
20
-75.699506
10
65.500462
20
-75.562488
10
65.658576
20
-75.425138
10
65.816401
20
-75.287458
10
65.973939
20
-75.149447
10
66.131187
20
-75.011107
10
66.288144
20
-74.872438
10
66.444811
20
-74.733440
10
66.601187
20
-74.594115
10
66.757270
20
-74.454462
10
66.913061
20
-74.314483
10
67.068558
20
-74.174177
10
67.223760
20
-74.033547
10
67.378668
20
-73.892591
10
67.533281
20
-73.751312
10
67.687597
20
-73.609709
10
67.841616
20
-73.467783
10
67.995338
20
-73.325535
10
68.148761
20
-73.182965
10
68.301886
20
-73.040074
10
68.454711
20
-72.896863
10
68.607235
20
-72.753332
10
68.759459
20
-72.609482
10
68.911381
20
-72.465313
10
69.063001
20
-72.320827
10
69.214317
20
-72.176023
10
69.365331
20
-72.030902
10
69.516040
20
-71.885466
10
69.666443
20
-71.739715
10
69.816542
20
-71.593648
10
69.966334
20
-71.447268
10
70.115819
20
-71.300574
10
70.264997
20
-71.153568
10
70.413866
20
-71.006249
10
70.562427
20
-70.858619
10
70.710678
20
-70.710678
10
70.858619
20
-70.562427
10
71.006249
20
-70.413866
10
71.153568
20
-70.264997
10
71.300574
20
-70.115819
10
71.447268
20
-69.966334
10
71.593648
20
-69.816542
10
71.739715
20
-69.666443
10
71.885466
20
-69.516040
10
72.030902
20
-69.365331
10
72.176023
20
-69.214317
10
72.320827
20
-69.063001
10
72.465313
20
-68.911381
10
72.609482
20
-68.759459
10
72.753332
20
-68.607235
10
72.896863
20
-68.454711
10
73.040074
20
-68.301886
10
73.182965
20
-68.148761
10
73.325535
20
-67.995338
10
73.467783
20
-67.841616
10
73.609709
20
-67.687597
10
73.751312
20
-67.533281
10
73.892591
20
-67.378668
10
74.033547
20
-67.223760
10
74.174177
20
-67.068558
10
74.314483
20
-66.913061
10
74.454462
20
-66.757270
10
74.594115
20
-66.601187
10
74.733440
20
-66.444811
10
74.872438
20
-66.288144
10
75.011107
20
-66.131187
10
75.149447
20
-65.973939
10
75.287458
20
-65.816401
10
75.425138
20
-65.658576
10
75.562488
20
-65.500462
10
75.699506
20
-65.342060
10
75.836192
20
-65.183373
10
75.972545
20
-65.024399
10
76.108565
20
-64.865140
10
76.244251
20
-64.705596
10
76.379603
20
-64.545769
10
76.514620
20
-64.385658
10
76.649301
20
-64.225265
10
76.783646
20
-64.064591
10
76.917654
20
-63.903635
10
77.051324
20
-63.742399
10
77.184657
20
-63.580883
10
77.317651
20
-63.419089
10
77.450306
20
-63.257016
10
77.582621
20
-63.094666
10
77.714596
20
-62.932039
10
77.846230
20
-62.769136
10
77.977523
20
-62.605958
10
78.108473
20
-62.442505
10
78.239081
20
-62.278778
10
78.369346
20
-62.114778
10
78.499267
20
-61.950506
10
78.628843
20
-61.785961
10
78.758075
20
-61.621146
10
78.886961
20
-61.456060
10
79.015501
20
-61.290705
10
79.143695
20
-61.125081
10
79.271541
20
-60.959189
10
79.399040
20
-60.793030
10
79.526190
20
-60.626604
10
79.652992
20
-60.459911
10
79.779444
20
-60.292954
10
79.905546
20
-60.125732
10
80.031298
20
-59.958247
10
80.156698
20
-59.790498
10
80.281748
20
-59.622487
10
80.406444
20
-59.454215
10
80.530789
20
-59.285682
10
80.654779
20
-59.116889
10
80.778417
20
-58.947836
10
80.901699
20
-58.778525
10
81.024627
20
-58.608956
10
81.147200
20
-58.439130
10
81.269416
20
-58.269048
10
81.391277
20
-58.098710
10
81.512780
20
-57.928117
10
81.633925
20
-57.757270
10
81.754712
20
-57.586170
10
81.875141
20
-57.414817
10
81.995211
20
-57.243213
10
82.114921
20
-57.071357
10
82.234271
20
-56.899251
10
82.353260
20
-56.726895
10
82.471888
20
-56.554290
10
82.590154
20
-56.381438
10
82.708057
20
-56.208338
10
82.825598
20
-56.034991
10
82.942776
20
-55.861399
10
83.059590
20
-55.687562
10
83.176039
20
-55.513480
10
83.292124
20
-55.339155
10
83.407843
20
-55.164587
10
83.523197
20
-54.989777
10
83.638184
20
-54.814726
10
83.752804
20
-54.639435
10
83.867057
20
-54.463904
10
83.980942
20
-54.288133
10
84.094458
20
-54.112125
10
84.207606
20
-53.935880
10
84.320384
20
-53.759397
10
84.432793
20
-53.582679
10
84.544831
20
-53.405726
10
84.656498
20
-53.228539
10
84.767794
20
-53.051118
10
84.878718
20
-52.873465
10
84.989269
20
-52.695580
10
85.099448
20
-52.517463
10
85.209254
20
-52.339116
10
85.318686
20
-52.160540
10
85.427743
20
-51.981734
10
85.536426
20
-51.802701
10
85.644734
20
-51.623440
10
85.752666
20
-51.443953
10
85.860221
20
-51.264241
10
85.967401
20
-51.084303
10
86.074203
20
-50.904142
10
86.180627
20
-50.723757
10
86.286674
20
-50.543149
10
86.392342
20
-50.362320
10
86.497631
20
-50.181270
10
86.602540
20
-50.000000
10
86.707070
20
-49.818511
10
86.811220
20
-49.636803
10
86.914988
20
-49.454877
10
87.018375
20
-49.272734
10
87.121381
20
-49.090375
10
87.224005
20
-48.907801
10
87.326245
20
-48.725013
10
87.428103
20
-48.542010
10
87.529578
20
-48.358795
10
87.630668
20
-48.175367
10
87.731374
20
-47.991729
10
87.831695
20
-47.807879
10
87.931631
20
-47.623820
10
88.031181
20
-47.439552
10
88.130345
20
-47.255076
10
88.229123
20
-47.070393
10
88.327513
20
-46.885503
10
88.425516
20
-46.700408
10
88.523131
20
-46.515108
10
88.620358
20
-46.329604
10
88.717196
20
-46.143896
10
88.813645
20
-45.957986
10
88.909704
20
-45.771875
10
89.005374
20
-45.585562
10
89.100652
20
-45.399050
10
89.195540
20
-45.212339
10
89.290037
20
-45.025429
10
89.384142
20
-44.838322
10
89.477855
20
-44.651018
10
89.571176
20
-44.463518
10
89.664104
20
-44.275823
10
89.756638
20
-44.087934
10
89.848779
20
-43.899852
10
89.940525
20
-43.711577
10
90.031877
20
-43.523110
10
90.122834
20
-43.334452
10
90.213396
20
-43.145605
10
90.303562
20
-42.956568
10
90.393332
20
-42.767342
10
90.482705
20
-42.577929
10
90.571682
20
-42.388329
10
90.660261
20
-42.198544
10
90.748442
20
-42.008573
10
90.836226
20
-41.818418
10
90.923611
20
-41.628079
10
91.010597
20
-41.437558
10
91.097184
20
-41.246855
10
91.183371
20
-41.055971
10
91.269159
20
-40.864907
10
91.354546
20
-40.673664
10
91.439532
20
-40.482243
10
91.524117
20
-40.290644
10
91.608301
20
-40.098868
10
91.692083
20
-39.906916
10
91.775463
20
-39.714789
10
91.858440
20
-39.522488
10
91.941014
20
-39.330014
10
92.023185
20
-39.137367
10
92.104952
20
-38.944548
10
92.186315
20
-38.751559
10
92.267274
20
-38.558399
10
92.347828
20
-38.365071
10
92.427977
20
-38.171574
10
92.507721
20
-37.977910
10
92.587058
20
-37.784079
10
92.665990
20
-37.590082
10
92.744515
20
-37.395921
10
92.822634
20
-37.201595
10
92.900345
20
-37.007106
10
92.977649
20
-36.812455
10
93.054544
20
-36.617643
10
93.131032
20
-36.422670
10
93.207111
20
-36.227537
10
93.282782
20
-36.032245
10
93.358043
20
-35.836795
10
93.432894
20
-35.641188
10
93.507336
20
-35.445424
10
93.581368
20
-35.249506
10
93.654989
20
-35.053432
10
93.728199
20
-34.857205
10
93.800998
20
-34.660825
10
93.873386
20
-34.464292
10
93.945362
20
-34.267609
10
94.016925
20
-34.070775
10
94.088077
20
-33.873792
10
94.158816
20
-33.676660
10
94.229141
20
-33.479381
10
94.299054
20
-33.281954
10
94.368552
20
-33.084382
10
94.437637
20
-32.886665
10
94.506308
20
-32.688803
10
94.574563
20
-32.490798
10
94.642405
20
-32.292650
10
94.709830
20
-32.094361
10
94.776841
20
-31.895931
10
94.843436
20
-31.697361
10
94.909614
20
-31.498652
10
94.975377
20
-31.299805
10
95.040723
20
-31.100820
10
95.105652
20
-30.901699
10
95.170163
20
-30.702443
10
95.234258
20
-30.503052
10
95.297934
20
-30.303527
10
95.361193
20
-30.103869
10
95.424033
20
-29.904079
10
95.486454
20
-29.704158
10
95.548457
20
-29.504107
10
95.610041
20
-29.303926
10
95.671205
20
-29.103617
10
95.731950
20
-28.903180
10
95.792274
20
-28.702616
10
95.852179
20
-28.501926
10
95.911663
20
-28.301112
10
95.970726
20
-28.100173
10
96.029369
20
-27.899111
10
96.087590
20
-27.697926
10
96.145389
20
-27.496620
10
96.202767
20
-27.295194
10
96.259723
20
-27.093647
10
96.316257
20
-26.891982
10
96.372368
20
-26.690199
10
96.428056
20
-26.488299
10
96.483322
20
-26.286282
10
96.538164
20
-26.084151
10
96.592583
20
-25.881905
10
96.646578
20
-25.679545
10
96.700149
20
-25.477073
10
96.753296
20
-25.274489
10
96.806018
20
-25.071794
10
96.858316
20
-24.868989
10
96.910189
20
-24.666075
10
96.961637
20
-24.463053
10
97.012660
20
-24.259923
10
97.063257
20
-24.056687
10
97.113428
20
-23.853346
10
97.163173
20
-23.649900
10
97.212492
20
-23.446350
10
97.261385
20
-23.242697
10
97.309851
20
-23.038943
10
97.357890
20
-22.835087
10
97.405502
20
-22.631131
10
97.452687
20
-22.427076
10
97.499445
20
-22.222923
10
97.545774
20
-22.018672
10
97.591676
20
-21.814324
10
97.637150
20
-21.609881
10
97.682195
20
-21.405343
10
97.726812
20
-21.200711
10
97.771001
20
-20.995986
10
97.814760
20
-20.791169
10
97.858090
20
-20.586261
10
97.900992
20
-20.381262
10
97.943463
20
-20.176174
10
97.985505
20
-19.970998
10
98.027117
20
-19.765734
10
98.068300
20
-19.560383
10
98.109052
20
-19.354947
10
98.149373
20
-19.149425
10
98.189265
20
-18.943820
10
98.228725
20
-18.738131
10
98.267755
20
-18.532361
10
98.306353
20
-18.326509
10
98.344520
20
-18.120576
10
98.382256
20
-17.914564
10
98.419561
20
-17.708474
10
98.456433
20
-17.502306
10
98.492874
20
-17.296061
10
98.528883
20
-17.089740
10
98.564460
20
-16.883344
10
98.599604
20
-16.676875
10
98.634315
20
-16.470332
10
98.668594
20
-16.263717
10
98.702441
20
-16.057030
10
98.735854
20
-15.850273
10
98.768834
20
-15.643447
10
98.801381
20
-15.436551
10
98.833494
20
-15.229589
10
98.865174
20
-15.022559
10
98.896421
20
-14.815463
10
98.927233
20
-14.608303
10
98.957612
20
-14.401078
10
98.987556
20
-14.193790
10
99.017067
20
-13.986440
10
99.046143
20
-13.779029
10
99.074784
20
-13.571557
10
99.102991
20
-13.364026
10
99.130763
20
-13.156436
10
99.158100
20
-12.948788
10
99.185003
20
-12.741084
10
99.211470
20
-12.533323
10
99.237502
20
-12.325508
10
99.263099
20
-12.117639
10
99.288260
20
-11.909716
10
99.312986
20
-11.701741
10
99.337277
20
-11.493715
10
99.361131
20
-11.285638
10
99.384550
20
-11.077512
10
99.407532
20
-10.869338
10
99.430079
20
-10.661115
10
99.452190
20
-10.452846
10
99.473864
20
-10.244531
10
99.495102
20
-10.036171
10
99.515903
20
-9.827768
10
99.536268
20
-9.619321
10
99.556196
20
-9.410831
10
99.575688
20
-9.202301
10
99.594743
20
-8.993730
10
99.613361
20
-8.785120
10
99.631542
20
-8.576471
10
99.649286
20
-8.367784
10
99.666593
20
-8.159061
10
99.683462
20
-7.950302
10
99.699895
20
-7.741508
10
99.715890
20
-7.532681
10
99.731448
20
-7.323820
10
99.746568
20
-7.114927
10
99.761251
20
-6.906003
10
99.775496
20
-6.697048
10
99.789303
20
-6.488064
10
99.802673
20
-6.279052
10
99.815605
20
-6.070012
10
99.828099
20
-5.860946
10
99.840155
20
-5.651853
10
99.851773
20
-5.442736
10
99.862953
20
-5.233596
10
99.873696
20
-5.024432
10
99.884000
20
-4.815246
10
99.893866
20
-4.606039
10
99.903293
20
-4.396812
10
99.912283
20
-4.187565
10
99.920834
20
-3.978301
10
99.928947
20
-3.769018
10
99.936622
20
-3.559719
10
99.943858
20
-3.350405
10
99.950656
20
-3.141076
10
99.957015
20
-2.931733
10
99.962936
20
-2.722377
10
99.968419
20
-2.513010
10
99.973463
20
-2.303631
10
99.978068
20
-2.094242
10
99.982235
20
-1.884844
10
99.985964
20
-1.675438
10
99.989253
20
-1.466024
10
99.992104
20
-1.256604
10
99.994517
20
-1.047178
10
99.996491
20
-0.837748
10
99.998026
20
-0.628314
10
99.999123
20
-0.418878
10
99.999781
20
-0.209439
97
0
75
1
76
1
52
0.0
41
1.0
77
0
78
1
53
0.0
43
0.0
44
0.0
45
0.0
46
0.050000
79
0
98
1
10
0.0
20
0.0
0
ENDSEC
0
EOF
