{
  "asset": { "version": "2.0" },
  "buffers": [
    { "uri": "mesh_group_0.bin", "byteLength": 168 }
  ],
  "bufferViews": [
    { "buffer": 0, "byteOffset": 0, "byteLength": 144, "target": 34962 },
    { "buffer": 0, "byteOffset": 144, "byteLength": 24, "target": 34963 }
  ],
  "accessors": [
    { "bufferView": 0, "byteOffset": 0, "componentType": 5126, "count": 12, "type": "VEC3",
      "min": [0,0,0], "max": [5,5,0] },
    { "bufferView": 1, "byteOffset": 0, "componentType": 5125, "count": 6, "type": "SCALAR" }
  ],
  "meshes": [
    { "primitives": [ { "attributes": { "POSITION": 0 }, "indices": 1, "mode": 4 } ] }
  ],
  "nodes": [ { "mesh": 0 } ],
  "scenes": [ { "nodes": [0] } ],
  "scene": 0
}
